<svg xmlns="http://www.w3.org/2000/svg" xmlns:xlink="http://www.w3.org/1999/xlink" width="500" zoomAndPan="magnify" viewBox="0 0 375 374.999991" height="500" preserveAspectRatio="xMidYMid meet" version="1.2"><defs><clipPath id="4c0a10f075"><path d="M 111 80.070312 L 265 80.070312 L 265 231 L 111 231 Z M 111 80.070312 "/></clipPath><clipPath id="76b8fea904"><path d="M 154.390625 129.761719 L 220.679688 129.761719 L 220.679688 187.84375 L 154.390625 187.84375 Z M 154.390625 129.761719 "/></clipPath><clipPath id="34256686fb"><path d="M 154.390625 146.894531 C 154.390625 165.34375 187.5 187.84375 187.5 187.84375 C 187.5 187.84375 220.460938 165.183594 220.609375 146.894531 C 220.609375 137.453125 212.914062 129.761719 203.472656 129.761719 C 196.214844 129.761719 189.964844 134.40625 187.5 140.792969 C 185.035156 134.40625 178.785156 129.761719 171.527344 129.761719 C 162.085938 129.761719 154.390625 137.453125 154.390625 146.894531 "/></clipPath><filter x="0%" y="0%" width="100%" filterUnits="objectBoundingBox" id="b8f26cec63" height="100%"><feColorMatrix values="0 0 0 0 1 0 0 0 0 1 0 0 0 0 1 0 0 0 1 0" type="matrix" in="SourceGraphic"/></filter><clipPath id="be24131c5d"><path d="M 0.152344 0.617188 L 52.90625 0.617188 L 52.90625 46.84375 L 0.152344 46.84375 Z M 0.152344 0.617188 "/></clipPath><clipPath id="625cb3cbff"><path d="M 0.152344 14.257812 C 0.152344 28.9375 26.5 46.84375 26.5 46.84375 C 26.5 46.84375 52.734375 28.8125 52.847656 14.257812 C 52.847656 6.742188 46.726562 0.617188 39.210938 0.617188 C 33.433594 0.617188 28.460938 4.316406 26.5 9.398438 C 24.539062 4.316406 19.566406 0.617188 13.789062 0.617188 C 6.273438 0.617188 0.152344 6.742188 0.152344 14.257812 "/></clipPath><clipPath id="1c9072db80"><rect x="0" width="54" y="0" height="47"/></clipPath></defs><g id="1019698b88"><rect x="0" width="375" y="0" height="374.999991" style="fill:#ffffff;fill-opacity:1;stroke:none;"/><rect x="0" width="375" y="0" height="374.999991" style="fill:#ffffff;fill-opacity:1;stroke:none;"/><path style=" stroke:none;fill-rule:nonzero;fill:#1b9ce4;fill-opacity:1;" d="M 138.449219 151.15625 C 138.449219 125.230469 159.46875 104.210938 185.394531 104.210938 C 197.25 104.210938 208.074219 108.605469 216.335938 115.855469 C 207.347656 101.921875 191.691406 92.695312 173.878906 92.695312 C 145.996094 92.695312 123.390625 115.300781 123.390625 143.183594 C 123.390625 167.410156 140.453125 187.648438 163.21875 192.542969 C 148.472656 184.625 138.449219 169.0625 138.449219 151.15625 "/><g clip-rule="nonzero" clip-path="url(#4c0a10f075)"><path style=" stroke:none;fill-rule:nonzero;fill:#183e9f;fill-opacity:1;" d="M 233.882812 80.417969 C 232.957031 80.070312 232.542969 81.039062 232.386719 82.339844 C 232.074219 84.878906 233.09375 87.394531 235.015625 89.082031 C 255.148438 106.71875 251.238281 149.933594 238.085938 147.355469 C 229.449219 145.664062 238.644531 119.992188 231.445312 119.117188 C 226.664062 118.535156 222.414062 130.4375 222.71875 146.128906 C 222.890625 155.105469 225.773438 162.515625 228.308594 168.945312 C 231.976562 178.261719 228.605469 188.925781 220.164062 194.3125 C 193.3125 211.449219 157.246094 208.292969 133.789062 184.832031 C 121.398438 172.441406 114.671875 156.527344 113.613281 140.3125 C 108.429688 164.324219 115.191406 190.394531 133.902344 209.023438 C 157.484375 232.507812 195.136719 237.394531 223.957031 220.753906 C 251.3125 204.953125 262.753906 172.445312 264.382812 142.21875 C 266.453125 103.773438 244.386719 84.375 233.882812 80.417969 Z M 230.109375 101.457031 C 240.566406 110.644531 244.519531 126.742188 244.058594 139.703125 C 245.699219 135.683594 246.589844 129.796875 246.386719 123.496094 C 246.113281 115.070312 244.109375 107.179688 240.753906 100.785156 C 236.414062 96.613281 232.140625 93.972656 228.941406 92.765625 C 227.996094 92.410156 227.585938 93.429688 227.4375 94.777344 C 227.15625 97.304688 228.203125 99.777344 230.109375 101.457031 "/></g><g clip-rule="nonzero" clip-path="url(#76b8fea904)"><g clip-rule="nonzero" clip-path="url(#34256686fb)"><path style=" stroke:none;fill-rule:nonzero;fill:#183e9f;fill-opacity:1;" d="M 154.390625 129.761719 L 220.546875 129.761719 L 220.546875 187.84375 L 154.390625 187.84375 Z M 154.390625 129.761719 "/></g></g><g mask="url(#3c6ac23644)" transform="matrix(1,0,0,1,161,141)"><g clip-path="url(#1c9072db80)"><g clip-rule="nonzero" clip-path="url(#be24131c5d)"><g clip-rule="nonzero" clip-path="url(#625cb3cbff)"><path style=" stroke:none;fill-rule:nonzero;fill:#54afe6;fill-opacity:1;" d="M 0.152344 0.617188 L 52.800781 0.617188 L 52.800781 46.84375 L 0.152344 46.84375 Z M 0.152344 0.617188 "/></g></g></g><mask id="3c6ac23644"><g filter="url(#b8f26cec63)"><rect x="0" width="375" y="0" height="374.999991" style="fill:#000000;fill-opacity:0.82;stroke:none;"/></g></mask></g><g style="fill:#183172;fill-opacity:1;"><g transform="translate(71.916021, 296.533867)"><path style="stroke:none" d="M 27.515625 -0.03125 L 22.78125 -0.03125 L 22.78125 -17.390625 C 22.78125 -17.722656 22.835938 -18.566406 22.953125 -19.921875 C 22.890625 -19.734375 22.804688 -19.46875 22.703125 -19.125 C 22.597656 -18.789062 22.5 -18.484375 22.40625 -18.203125 C 22.3125 -17.921875 22.21875 -17.648438 22.125 -17.390625 L 15.859375 0 L 13.265625 0 L 6.828125 -17.390625 C 6.734375 -17.648438 6.640625 -17.921875 6.546875 -18.203125 C 6.453125 -18.484375 6.351562 -18.789062 6.25 -19.125 C 6.144531 -19.46875 6.054688 -19.734375 5.984375 -19.921875 C 5.984375 -19.703125 6.007812 -19.300781 6.0625 -18.71875 C 6.125 -18.132812 6.15625 -17.691406 6.15625 -17.390625 L 6.15625 -0.03125 L 2.34375 -0.03125 L 2.34375 -23.484375 C 2.34375 -23.503906 2.300781 -23.675781 2.21875 -24 C 2.132812 -24.332031 2.050781 -24.671875 1.96875 -25.015625 C 1.894531 -25.367188 1.859375 -25.570312 1.859375 -25.625 L 8.578125 -25.625 L 14.03125 -10.921875 C 14.289062 -10.222656 14.628906 -8.8125 15.046875 -6.6875 C 15.097656 -6.851562 15.222656 -7.441406 15.421875 -8.453125 C 15.617188 -9.460938 15.8125 -10.238281 16 -10.78125 L 21.34375 -25.625 L 27.515625 -25.625 Z M 27.515625 -0.03125 "/></g></g><g style="fill:#183172;fill-opacity:1;"><g transform="translate(101.239399, 296.533867)"><path style="stroke:none" d="M 17.921875 0 L 2.34375 0 L 2.34375 -23.484375 L 1.8125 -25.625 L 17.921875 -25.625 L 17.921875 -22.15625 L 7.140625 -22.15625 L 7.140625 -14.90625 L 15.40625 -14.90625 L 15.40625 -11.4375 L 7.140625 -11.4375 L 7.140625 -3.46875 L 17.921875 -3.46875 Z M 17.921875 0 "/></g></g><g style="fill:#183172;fill-opacity:1;"><g transform="translate(120.450056, 296.533867)"><path style="stroke:none" d="M 21.59375 0 L 16.140625 0 L 9.03125 -11.40625 L 7.109375 -11.40625 L 7.109375 0 L 2.3125 0 L 2.3125 -23.484375 C 2.3125 -23.535156 2.226562 -23.878906 2.0625 -24.515625 C 1.894531 -25.160156 1.800781 -25.53125 1.78125 -25.625 L 10.5625 -25.625 C 13.15625 -25.625 15.242188 -25.070312 16.828125 -23.96875 C 18.421875 -22.875 19.21875 -21.09375 19.21875 -18.625 C 19.21875 -17.175781 18.664062 -15.820312 17.5625 -14.5625 C 16.46875 -13.300781 15.195312 -12.492188 13.75 -12.140625 Z M 14.140625 -18.65625 C 14.140625 -19.75 13.753906 -20.597656 12.984375 -21.203125 C 12.210938 -21.816406 11.253906 -22.125 10.109375 -22.125 L 7.109375 -22.125 L 7.109375 -14.84375 L 9.34375 -14.84375 C 12.539062 -14.84375 14.140625 -16.113281 14.140625 -18.65625 Z M 14.140625 -18.65625 "/></g></g><g style="fill:#183172;fill-opacity:1;"><g transform="translate(141.130387, 296.533867)"><path style="stroke:none" d="M 25.125 -12.78125 C 25.125 -8.925781 24.015625 -5.765625 21.796875 -3.296875 C 19.585938 -0.835938 16.582031 0.390625 12.78125 0.390625 C 8.96875 0.390625 5.992188 -0.847656 3.859375 -3.328125 C 1.734375 -5.816406 0.671875 -8.988281 0.671875 -12.84375 C 0.671875 -16.71875 1.742188 -19.878906 3.890625 -22.328125 C 6.035156 -24.773438 9.007812 -26 12.8125 -26 C 16.707031 -26 19.734375 -24.78125 21.890625 -22.34375 C 24.046875 -19.90625 25.125 -16.71875 25.125 -12.78125 Z M 19.953125 -12.640625 C 19.953125 -13.867188 19.832031 -15.035156 19.59375 -16.140625 C 19.363281 -17.253906 18.988281 -18.316406 18.46875 -19.328125 C 17.957031 -20.347656 17.21875 -21.160156 16.25 -21.765625 C 15.289062 -22.378906 14.15625 -22.6875 12.84375 -22.6875 C 11.5625 -22.6875 10.441406 -22.398438 9.484375 -21.828125 C 8.523438 -21.253906 7.789062 -20.484375 7.28125 -19.515625 C 6.769531 -18.546875 6.394531 -17.519531 6.15625 -16.4375 C 5.925781 -15.351562 5.8125 -14.203125 5.8125 -12.984375 C 5.8125 -11.742188 5.925781 -10.570312 6.15625 -9.46875 C 6.394531 -8.363281 6.769531 -7.300781 7.28125 -6.28125 C 7.789062 -5.269531 8.53125 -4.457031 9.5 -3.84375 C 10.46875 -3.238281 11.609375 -2.9375 12.921875 -2.9375 C 14.203125 -2.9375 15.316406 -3.222656 16.265625 -3.796875 C 17.222656 -4.367188 17.957031 -5.140625 18.46875 -6.109375 C 18.988281 -7.078125 19.363281 -8.101562 19.59375 -9.1875 C 19.832031 -10.269531 19.953125 -11.421875 19.953125 -12.640625 Z M 19.953125 -12.640625 "/></g></g><g style="fill:#183172;fill-opacity:1;"><g transform="translate(166.919566, 296.533867)"><path style="stroke:none" d=""/></g></g><g style="fill:#183172;fill-opacity:1;"><g transform="translate(174.967749, 296.533867)"><path style="stroke:none" d="M 23.796875 -12.78125 C 23.796875 -8.851562 22.59375 -5.703125 20.1875 -3.328125 C 17.976562 -1.109375 15.0625 0 11.4375 0 L 2.34375 0 L 2.34375 -23.484375 C 2.34375 -23.503906 2.253906 -23.847656 2.078125 -24.515625 C 1.898438 -25.179688 1.800781 -25.550781 1.78125 -25.625 L 11.484375 -25.625 C 15.328125 -25.625 18.335938 -24.445312 20.515625 -22.09375 C 22.703125 -19.75 23.796875 -16.644531 23.796875 -12.78125 Z M 18.625 -12.640625 C 18.625 -14.316406 18.390625 -15.84375 17.921875 -17.21875 C 17.453125 -18.59375 16.640625 -19.757812 15.484375 -20.71875 C 14.328125 -21.675781 12.890625 -22.15625 11.171875 -22.15625 L 7.171875 -22.15625 L 7.171875 -3.46875 L 11.234375 -3.46875 C 12.515625 -3.46875 13.644531 -3.71875 14.625 -4.21875 C 15.601562 -4.71875 16.375 -5.40625 16.9375 -6.28125 C 17.5 -7.15625 17.921875 -8.125 18.203125 -9.1875 C 18.484375 -10.25 18.625 -11.398438 18.625 -12.640625 Z M 18.625 -12.640625 "/></g></g><g style="fill:#183172;fill-opacity:1;"><g transform="translate(199.427227, 296.533867)"><path style="stroke:none" d="M 25.125 -12.78125 C 25.125 -8.925781 24.015625 -5.765625 21.796875 -3.296875 C 19.585938 -0.835938 16.582031 0.390625 12.78125 0.390625 C 8.96875 0.390625 5.992188 -0.847656 3.859375 -3.328125 C 1.734375 -5.816406 0.671875 -8.988281 0.671875 -12.84375 C 0.671875 -16.71875 1.742188 -19.878906 3.890625 -22.328125 C 6.035156 -24.773438 9.007812 -26 12.8125 -26 C 16.707031 -26 19.734375 -24.78125 21.890625 -22.34375 C 24.046875 -19.90625 25.125 -16.71875 25.125 -12.78125 Z M 19.953125 -12.640625 C 19.953125 -13.867188 19.832031 -15.035156 19.59375 -16.140625 C 19.363281 -17.253906 18.988281 -18.316406 18.46875 -19.328125 C 17.957031 -20.347656 17.21875 -21.160156 16.25 -21.765625 C 15.289062 -22.378906 14.15625 -22.6875 12.84375 -22.6875 C 11.5625 -22.6875 10.441406 -22.398438 9.484375 -21.828125 C 8.523438 -21.253906 7.789062 -20.484375 7.28125 -19.515625 C 6.769531 -18.546875 6.394531 -17.519531 6.15625 -16.4375 C 5.925781 -15.351562 5.8125 -14.203125 5.8125 -12.984375 C 5.8125 -11.742188 5.925781 -10.570312 6.15625 -9.46875 C 6.394531 -8.363281 6.769531 -7.300781 7.28125 -6.28125 C 7.789062 -5.269531 8.53125 -4.457031 9.5 -3.84375 C 10.46875 -3.238281 11.609375 -2.9375 12.921875 -2.9375 C 14.203125 -2.9375 15.316406 -3.222656 16.265625 -3.796875 C 17.222656 -4.367188 17.957031 -5.140625 18.46875 -6.109375 C 18.988281 -7.078125 19.363281 -8.101562 19.59375 -9.1875 C 19.832031 -10.269531 19.953125 -11.421875 19.953125 -12.640625 Z M 19.953125 -12.640625 "/></g></g><g style="fill:#183172;fill-opacity:1;"><g transform="translate(225.216406, 296.533867)"><path style="stroke:none" d="M 21.421875 -2.171875 C 19.953125 -1.265625 18.582031 -0.601562 17.3125 -0.1875 C 16.039062 0.21875 14.585938 0.421875 12.953125 0.421875 C 9.003906 0.421875 5.972656 -0.8125 3.859375 -3.28125 C 1.753906 -5.757812 0.703125 -8.992188 0.703125 -12.984375 C 0.703125 -16.785156 1.804688 -19.921875 4.015625 -22.390625 C 6.234375 -24.867188 9.222656 -26.109375 12.984375 -26.109375 C 14.429688 -26.109375 15.945312 -25.894531 17.53125 -25.46875 C 19.125 -25.050781 20.375 -24.4375 21.28125 -23.625 L 18.765625 -20.40625 C 18.128906 -21.101562 17.285156 -21.660156 16.234375 -22.078125 C 15.191406 -22.503906 14.164062 -22.71875 13.15625 -22.71875 C 11.425781 -22.71875 9.992188 -22.226562 8.859375 -21.25 C 7.734375 -20.269531 6.960938 -19.085938 6.546875 -17.703125 C 6.128906 -16.328125 5.921875 -14.789062 5.921875 -13.09375 C 5.921875 -11.96875 6.066406 -10.828125 6.359375 -9.671875 C 6.648438 -8.515625 7.070312 -7.414062 7.625 -6.375 C 8.1875 -5.34375 8.957031 -4.5 9.9375 -3.84375 C 10.914062 -3.195312 12.015625 -2.875 13.234375 -2.875 C 15.398438 -2.875 17.394531 -3.75 19.21875 -5.5 Z M 21.421875 -2.171875 "/></g></g><g style="fill:#183172;fill-opacity:1;"><g transform="translate(247.05148, 296.533867)"><path style="stroke:none" d="M 19.78125 -22.15625 L 12.5625 -22.15625 L 12.5625 0 L 7.5625 0 L 7.5625 -22.15625 L 0.453125 -22.15625 L 0.453125 -25.625 L 19.78125 -25.625 Z M 19.78125 -22.15625 "/></g></g><g style="fill:#183172;fill-opacity:1;"><g transform="translate(267.276908, 296.533867)"><path style="stroke:none" d="M 25.125 -12.78125 C 25.125 -8.925781 24.015625 -5.765625 21.796875 -3.296875 C 19.585938 -0.835938 16.582031 0.390625 12.78125 0.390625 C 8.96875 0.390625 5.992188 -0.847656 3.859375 -3.328125 C 1.734375 -5.816406 0.671875 -8.988281 0.671875 -12.84375 C 0.671875 -16.71875 1.742188 -19.878906 3.890625 -22.328125 C 6.035156 -24.773438 9.007812 -26 12.8125 -26 C 16.707031 -26 19.734375 -24.78125 21.890625 -22.34375 C 24.046875 -19.90625 25.125 -16.71875 25.125 -12.78125 Z M 19.953125 -12.640625 C 19.953125 -13.867188 19.832031 -15.035156 19.59375 -16.140625 C 19.363281 -17.253906 18.988281 -18.316406 18.46875 -19.328125 C 17.957031 -20.347656 17.21875 -21.160156 16.25 -21.765625 C 15.289062 -22.378906 14.15625 -22.6875 12.84375 -22.6875 C 11.5625 -22.6875 10.441406 -22.398438 9.484375 -21.828125 C 8.523438 -21.253906 7.789062 -20.484375 7.28125 -19.515625 C 6.769531 -18.546875 6.394531 -17.519531 6.15625 -16.4375 C 5.925781 -15.351562 5.8125 -14.203125 5.8125 -12.984375 C 5.8125 -11.742188 5.925781 -10.570312 6.15625 -9.46875 C 6.394531 -8.363281 6.769531 -7.300781 7.28125 -6.28125 C 7.789062 -5.269531 8.53125 -4.457031 9.5 -3.84375 C 10.46875 -3.238281 11.609375 -2.9375 12.921875 -2.9375 C 14.203125 -2.9375 15.316406 -3.222656 16.265625 -3.796875 C 17.222656 -4.367188 17.957031 -5.140625 18.46875 -6.109375 C 18.988281 -7.078125 19.363281 -8.101562 19.59375 -9.1875 C 19.832031 -10.269531 19.953125 -11.421875 19.953125 -12.640625 Z M 19.953125 -12.640625 "/></g></g><g style="fill:#183172;fill-opacity:1;"><g transform="translate(293.066076, 296.533867)"><path style="stroke:none" d="M 21.59375 0 L 16.140625 0 L 9.03125 -11.40625 L 7.109375 -11.40625 L 7.109375 0 L 2.3125 0 L 2.3125 -23.484375 C 2.3125 -23.535156 2.226562 -23.878906 2.0625 -24.515625 C 1.894531 -25.160156 1.800781 -25.53125 1.78125 -25.625 L 10.5625 -25.625 C 13.15625 -25.625 15.242188 -25.070312 16.828125 -23.96875 C 18.421875 -22.875 19.21875 -21.09375 19.21875 -18.625 C 19.21875 -17.175781 18.664062 -15.820312 17.5625 -14.5625 C 16.46875 -13.300781 15.195312 -12.492188 13.75 -12.140625 Z M 14.140625 -18.65625 C 14.140625 -19.75 13.753906 -20.597656 12.984375 -21.203125 C 12.210938 -21.816406 11.253906 -22.125 10.109375 -22.125 L 7.109375 -22.125 L 7.109375 -14.84375 L 9.34375 -14.84375 C 12.539062 -14.84375 14.140625 -16.113281 14.140625 -18.65625 Z M 14.140625 -18.65625 "/></g></g><g style="fill:#183e9f;fill-opacity:1;"><g transform="translate(106.358287, 258.783924)"><path style="stroke:none" d="M 4.25 0 L 1.28125 0 L 1.28125 -9.9375 C 1.28125 -9.9375 1.257812 -10.007812 1.21875 -10.15625 C 1.1875 -10.3125 1.148438 -10.472656 1.109375 -10.640625 C 1.078125 -10.804688 1.0625 -10.898438 1.0625 -10.921875 L 4.703125 -10.921875 C 6.921875 -10.921875 8.03125 -10.078125 8.03125 -8.390625 C 8.03125 -7.796875 7.859375 -7.265625 7.515625 -6.796875 C 7.179688 -6.335938 6.738281 -6.054688 6.1875 -5.953125 C 6.914062 -5.847656 7.484375 -5.523438 7.890625 -4.984375 C 8.304688 -4.453125 8.515625 -3.8125 8.515625 -3.0625 C 8.515625 -2.4375 8.394531 -1.910156 8.15625 -1.484375 C 7.925781 -1.066406 7.59375 -0.753906 7.15625 -0.546875 C 6.726562 -0.335938 6.285156 -0.191406 5.828125 -0.109375 C 5.367188 -0.0351562 4.84375 0 4.25 0 Z M 2.671875 -6.40625 L 4.28125 -6.40625 C 5.019531 -6.40625 5.582031 -6.554688 5.96875 -6.859375 C 6.363281 -7.160156 6.5625 -7.660156 6.5625 -8.359375 C 6.5625 -9.378906 5.929688 -9.890625 4.671875 -9.890625 L 2.671875 -9.890625 Z M 2.671875 -1.03125 L 4.328125 -1.03125 C 5.203125 -1.03125 5.867188 -1.195312 6.328125 -1.53125 C 6.796875 -1.863281 7.03125 -2.445312 7.03125 -3.28125 C 7.03125 -3.988281 6.765625 -4.515625 6.234375 -4.859375 C 5.710938 -5.203125 5.078125 -5.375 4.328125 -5.375 L 2.671875 -5.375 Z M 2.671875 -1.03125 "/></g></g><g style="fill:#183e9f;fill-opacity:1;"><g transform="translate(115.568274, 258.783924)"><path style="stroke:none" d="M 5.515625 0.171875 C 4.722656 0.171875 4.015625 0.0195312 3.390625 -0.28125 C 2.765625 -0.582031 2.257812 -0.992188 1.875 -1.515625 C 1.488281 -2.046875 1.191406 -2.644531 0.984375 -3.3125 C 0.785156 -3.976562 0.6875 -4.6875 0.6875 -5.4375 C 0.6875 -7.039062 1.101562 -8.378906 1.9375 -9.453125 C 2.769531 -10.523438 3.96875 -11.0625 5.53125 -11.0625 C 7.082031 -11.0625 8.273438 -10.523438 9.109375 -9.453125 C 9.941406 -8.378906 10.359375 -7.039062 10.359375 -5.4375 C 10.359375 -4.414062 10.1875 -3.488281 9.84375 -2.65625 C 9.5 -1.820312 8.953125 -1.140625 8.203125 -0.609375 C 7.460938 -0.0859375 6.566406 0.171875 5.515625 0.171875 Z M 8.90625 -5.4375 C 8.90625 -6.007812 8.84375 -6.554688 8.71875 -7.078125 C 8.601562 -7.597656 8.421875 -8.082031 8.171875 -8.53125 C 7.921875 -8.976562 7.570312 -9.335938 7.125 -9.609375 C 6.675781 -9.878906 6.144531 -10.015625 5.53125 -10.015625 C 4.925781 -10.015625 4.394531 -9.878906 3.9375 -9.609375 C 3.488281 -9.335938 3.140625 -8.972656 2.890625 -8.515625 C 2.640625 -8.054688 2.457031 -7.566406 2.34375 -7.046875 C 2.226562 -6.535156 2.171875 -5.992188 2.171875 -5.421875 C 2.171875 -4.859375 2.226562 -4.316406 2.34375 -3.796875 C 2.457031 -3.285156 2.640625 -2.800781 2.890625 -2.34375 C 3.140625 -1.894531 3.488281 -1.535156 3.9375 -1.265625 C 4.394531 -0.992188 4.925781 -0.859375 5.53125 -0.859375 C 6.144531 -0.859375 6.675781 -0.992188 7.125 -1.265625 C 7.582031 -1.535156 7.9375 -1.894531 8.1875 -2.34375 C 8.4375 -2.800781 8.617188 -3.285156 8.734375 -3.796875 C 8.847656 -4.316406 8.90625 -4.863281 8.90625 -5.4375 Z M 8.90625 -5.4375 "/></g></g><g style="fill:#183e9f;fill-opacity:1;"><g transform="translate(126.623266, 258.783924)"><path style="stroke:none" d="M 5.515625 0.171875 C 4.722656 0.171875 4.015625 0.0195312 3.390625 -0.28125 C 2.765625 -0.582031 2.257812 -0.992188 1.875 -1.515625 C 1.488281 -2.046875 1.191406 -2.644531 0.984375 -3.3125 C 0.785156 -3.976562 0.6875 -4.6875 0.6875 -5.4375 C 0.6875 -7.039062 1.101562 -8.378906 1.9375 -9.453125 C 2.769531 -10.523438 3.96875 -11.0625 5.53125 -11.0625 C 7.082031 -11.0625 8.273438 -10.523438 9.109375 -9.453125 C 9.941406 -8.378906 10.359375 -7.039062 10.359375 -5.4375 C 10.359375 -4.414062 10.1875 -3.488281 9.84375 -2.65625 C 9.5 -1.820312 8.953125 -1.140625 8.203125 -0.609375 C 7.460938 -0.0859375 6.566406 0.171875 5.515625 0.171875 Z M 8.90625 -5.4375 C 8.90625 -6.007812 8.84375 -6.554688 8.71875 -7.078125 C 8.601562 -7.597656 8.421875 -8.082031 8.171875 -8.53125 C 7.921875 -8.976562 7.570312 -9.335938 7.125 -9.609375 C 6.675781 -9.878906 6.144531 -10.015625 5.53125 -10.015625 C 4.925781 -10.015625 4.394531 -9.878906 3.9375 -9.609375 C 3.488281 -9.335938 3.140625 -8.972656 2.890625 -8.515625 C 2.640625 -8.054688 2.457031 -7.566406 2.34375 -7.046875 C 2.226562 -6.535156 2.171875 -5.992188 2.171875 -5.421875 C 2.171875 -4.859375 2.226562 -4.316406 2.34375 -3.796875 C 2.457031 -3.285156 2.640625 -2.800781 2.890625 -2.34375 C 3.140625 -1.894531 3.488281 -1.535156 3.9375 -1.265625 C 4.394531 -0.992188 4.925781 -0.859375 5.53125 -0.859375 C 6.144531 -0.859375 6.675781 -0.992188 7.125 -1.265625 C 7.582031 -1.535156 7.9375 -1.894531 8.1875 -2.34375 C 8.4375 -2.800781 8.617188 -3.285156 8.734375 -3.796875 C 8.847656 -4.316406 8.90625 -4.863281 8.90625 -5.4375 Z M 8.90625 -5.4375 "/></g></g><g style="fill:#183e9f;fill-opacity:1;"><g transform="translate(137.678258, 258.783924)"><path style="stroke:none" d="M 8.75 0 L 7 0 L 2.6875 -5.6875 L 2.6875 0 L 1.296875 0 L 1.296875 -9.9375 C 1.296875 -9.9375 1.273438 -10.007812 1.234375 -10.15625 C 1.203125 -10.3125 1.164062 -10.472656 1.125 -10.640625 C 1.09375 -10.804688 1.078125 -10.898438 1.078125 -10.921875 L 2.6875 -10.921875 L 2.6875 -6.046875 L 7.015625 -10.921875 L 8.46875 -10.921875 L 4.171875 -6.0625 Z M 8.75 0 "/></g></g><g style="fill:#183e9f;fill-opacity:1;"><g transform="translate(146.438252, 258.783924)"><path style="stroke:none" d=""/></g></g><g style="fill:#183e9f;fill-opacity:1;"><g transform="translate(149.888245, 258.783924)"><path style="stroke:none" d="M 5.15625 0 L 3.734375 0 L 3.734375 -5.40625 L 0.484375 -10.921875 L 2.09375 -10.921875 L 4.640625 -6.671875 L 6.984375 -10.921875 L 8.296875 -10.921875 L 5.15625 -5.40625 Z M 5.15625 0 "/></g></g><g style="fill:#183e9f;fill-opacity:1;"><g transform="translate(158.648239, 258.783924)"><path style="stroke:none" d="M 5.515625 0.171875 C 4.722656 0.171875 4.015625 0.0195312 3.390625 -0.28125 C 2.765625 -0.582031 2.257812 -0.992188 1.875 -1.515625 C 1.488281 -2.046875 1.191406 -2.644531 0.984375 -3.3125 C 0.785156 -3.976562 0.6875 -4.6875 0.6875 -5.4375 C 0.6875 -7.039062 1.101562 -8.378906 1.9375 -9.453125 C 2.769531 -10.523438 3.96875 -11.0625 5.53125 -11.0625 C 7.082031 -11.0625 8.273438 -10.523438 9.109375 -9.453125 C 9.941406 -8.378906 10.359375 -7.039062 10.359375 -5.4375 C 10.359375 -4.414062 10.1875 -3.488281 9.84375 -2.65625 C 9.5 -1.820312 8.953125 -1.140625 8.203125 -0.609375 C 7.460938 -0.0859375 6.566406 0.171875 5.515625 0.171875 Z M 8.90625 -5.4375 C 8.90625 -6.007812 8.84375 -6.554688 8.71875 -7.078125 C 8.601562 -7.597656 8.421875 -8.082031 8.171875 -8.53125 C 7.921875 -8.976562 7.570312 -9.335938 7.125 -9.609375 C 6.675781 -9.878906 6.144531 -10.015625 5.53125 -10.015625 C 4.925781 -10.015625 4.394531 -9.878906 3.9375 -9.609375 C 3.488281 -9.335938 3.140625 -8.972656 2.890625 -8.515625 C 2.640625 -8.054688 2.457031 -7.566406 2.34375 -7.046875 C 2.226562 -6.535156 2.171875 -5.992188 2.171875 -5.421875 C 2.171875 -4.859375 2.226562 -4.316406 2.34375 -3.796875 C 2.457031 -3.285156 2.640625 -2.800781 2.890625 -2.34375 C 3.140625 -1.894531 3.488281 -1.535156 3.9375 -1.265625 C 4.394531 -0.992188 4.925781 -0.859375 5.53125 -0.859375 C 6.144531 -0.859375 6.675781 -0.992188 7.125 -1.265625 C 7.582031 -1.535156 7.9375 -1.894531 8.1875 -2.34375 C 8.4375 -2.800781 8.617188 -3.285156 8.734375 -3.796875 C 8.847656 -4.316406 8.90625 -4.863281 8.90625 -5.4375 Z M 8.90625 -5.4375 "/></g></g><g style="fill:#183e9f;fill-opacity:1;"><g transform="translate(169.703231, 258.783924)"><path style="stroke:none" d="M 8.140625 -3.875 L 8.140625 -10.921875 L 9.296875 -10.921875 L 9.296875 -3.875 C 9.296875 -2.601562 8.941406 -1.609375 8.234375 -0.890625 C 7.535156 -0.171875 6.546875 0.1875 5.265625 0.1875 C 3.992188 0.1875 3.015625 -0.140625 2.328125 -0.796875 C 1.640625 -1.453125 1.296875 -2.40625 1.296875 -3.65625 L 1.296875 -9.9375 L 1.0625 -10.921875 L 2.71875 -10.921875 L 2.71875 -3.65625 C 2.71875 -2.78125 2.929688 -2.09375 3.359375 -1.59375 C 3.796875 -1.101562 4.453125 -0.859375 5.328125 -0.859375 C 6.234375 -0.859375 6.925781 -1.128906 7.40625 -1.671875 C 7.894531 -2.210938 8.140625 -2.945312 8.140625 -3.875 Z M 8.140625 -3.875 "/></g></g><g style="fill:#183e9f;fill-opacity:1;"><g transform="translate(180.308218, 258.783924)"><path style="stroke:none" d="M 8.984375 0 L 7.359375 0 L 4.546875 -4.9375 C 4.316406 -4.914062 3.941406 -4.90625 3.421875 -4.90625 L 2.671875 -4.90625 L 2.671875 0 L 1.28125 0 L 1.28125 -9.9375 C 1.28125 -9.9375 1.257812 -10.007812 1.21875 -10.15625 C 1.1875 -10.3125 1.148438 -10.472656 1.109375 -10.640625 C 1.078125 -10.804688 1.0625 -10.898438 1.0625 -10.921875 L 4.3125 -10.921875 C 6.78125 -10.921875 8.015625 -9.914062 8.015625 -7.90625 C 8.015625 -7.300781 7.8125 -6.738281 7.40625 -6.21875 C 7 -5.707031 6.503906 -5.363281 5.921875 -5.1875 Z M 2.671875 -5.921875 L 3.875 -5.921875 C 4.695312 -5.921875 5.347656 -6.070312 5.828125 -6.375 C 6.316406 -6.6875 6.5625 -7.226562 6.5625 -8 C 6.5625 -8.601562 6.34375 -9.066406 5.90625 -9.390625 C 5.476562 -9.722656 4.945312 -9.890625 4.3125 -9.890625 L 2.671875 -9.890625 Z M 2.671875 -5.921875 "/></g></g><g style="fill:#183e9f;fill-opacity:1;"><g transform="translate(189.173212, 258.783924)"><path style="stroke:none" d=""/></g></g><g style="fill:#183e9f;fill-opacity:1;"><g transform="translate(192.623205, 258.783924)"><path style="stroke:none" d="M 9.203125 0 L 7.671875 0 L 6.40625 -3.75 L 2.8125 -3.75 L 1.53125 0 L 0.265625 0 L 4.0625 -10.921875 L 5.4375 -10.921875 Z M 6.0625 -4.765625 L 4.625 -9.09375 L 3.15625 -4.765625 Z M 6.0625 -4.765625 "/></g></g><g style="fill:#183e9f;fill-opacity:1;"><g transform="translate(202.0882, 258.783924)"><path style="stroke:none" d="M 2.6875 0 L 1.296875 0 L 1.296875 -9.9375 L 1.0625 -10.921875 L 4.328125 -10.921875 C 5.472656 -10.921875 6.375 -10.648438 7.03125 -10.109375 C 7.6875 -9.578125 8.015625 -8.75 8.015625 -7.625 C 8.015625 -6.570312 7.664062 -5.753906 6.96875 -5.171875 C 6.28125 -4.597656 5.40625 -4.3125 4.34375 -4.3125 L 2.6875 -4.3125 Z M 2.6875 -5.34375 L 4.3125 -5.34375 C 5.007812 -5.34375 5.554688 -5.546875 5.953125 -5.953125 C 6.359375 -6.367188 6.5625 -6.925781 6.5625 -7.625 C 6.5625 -8.332031 6.367188 -8.882812 5.984375 -9.28125 C 5.597656 -9.6875 5.046875 -9.890625 4.328125 -9.890625 L 2.6875 -9.890625 Z M 2.6875 -5.34375 "/></g></g><g style="fill:#183e9f;fill-opacity:1;"><g transform="translate(210.713188, 258.783924)"><path style="stroke:none" d="M 2.6875 0 L 1.296875 0 L 1.296875 -9.9375 L 1.0625 -10.921875 L 4.328125 -10.921875 C 5.472656 -10.921875 6.375 -10.648438 7.03125 -10.109375 C 7.6875 -9.578125 8.015625 -8.75 8.015625 -7.625 C 8.015625 -6.570312 7.664062 -5.753906 6.96875 -5.171875 C 6.28125 -4.597656 5.40625 -4.3125 4.34375 -4.3125 L 2.6875 -4.3125 Z M 2.6875 -5.34375 L 4.3125 -5.34375 C 5.007812 -5.34375 5.554688 -5.546875 5.953125 -5.953125 C 6.359375 -6.367188 6.5625 -6.925781 6.5625 -7.625 C 6.5625 -8.332031 6.367188 -8.882812 5.984375 -9.28125 C 5.597656 -9.6875 5.046875 -9.890625 4.328125 -9.890625 L 2.6875 -9.890625 Z M 2.6875 -5.34375 "/></g></g><g style="fill:#183e9f;fill-opacity:1;"><g transform="translate(219.338176, 258.783924)"><path style="stroke:none" d="M 5.515625 0.171875 C 4.722656 0.171875 4.015625 0.0195312 3.390625 -0.28125 C 2.765625 -0.582031 2.257812 -0.992188 1.875 -1.515625 C 1.488281 -2.046875 1.191406 -2.644531 0.984375 -3.3125 C 0.785156 -3.976562 0.6875 -4.6875 0.6875 -5.4375 C 0.6875 -7.039062 1.101562 -8.378906 1.9375 -9.453125 C 2.769531 -10.523438 3.96875 -11.0625 5.53125 -11.0625 C 7.082031 -11.0625 8.273438 -10.523438 9.109375 -9.453125 C 9.941406 -8.378906 10.359375 -7.039062 10.359375 -5.4375 C 10.359375 -4.414062 10.1875 -3.488281 9.84375 -2.65625 C 9.5 -1.820312 8.953125 -1.140625 8.203125 -0.609375 C 7.460938 -0.0859375 6.566406 0.171875 5.515625 0.171875 Z M 8.90625 -5.4375 C 8.90625 -6.007812 8.84375 -6.554688 8.71875 -7.078125 C 8.601562 -7.597656 8.421875 -8.082031 8.171875 -8.53125 C 7.921875 -8.976562 7.570312 -9.335938 7.125 -9.609375 C 6.675781 -9.878906 6.144531 -10.015625 5.53125 -10.015625 C 4.925781 -10.015625 4.394531 -9.878906 3.9375 -9.609375 C 3.488281 -9.335938 3.140625 -8.972656 2.890625 -8.515625 C 2.640625 -8.054688 2.457031 -7.566406 2.34375 -7.046875 C 2.226562 -6.535156 2.171875 -5.992188 2.171875 -5.421875 C 2.171875 -4.859375 2.226562 -4.316406 2.34375 -3.796875 C 2.457031 -3.285156 2.640625 -2.800781 2.890625 -2.34375 C 3.140625 -1.894531 3.488281 -1.535156 3.9375 -1.265625 C 4.394531 -0.992188 4.925781 -0.859375 5.53125 -0.859375 C 6.144531 -0.859375 6.675781 -0.992188 7.125 -1.265625 C 7.582031 -1.535156 7.9375 -1.894531 8.1875 -2.34375 C 8.4375 -2.800781 8.617188 -3.285156 8.734375 -3.796875 C 8.847656 -4.316406 8.90625 -4.863281 8.90625 -5.4375 Z M 8.90625 -5.4375 "/></g></g><g style="fill:#183e9f;fill-opacity:1;"><g transform="translate(230.393168, 258.783924)"><path style="stroke:none" d="M 2.703125 0 L 1.3125 0 L 1.3125 -9.9375 C 1.3125 -9.9375 1.289062 -10.007812 1.25 -10.15625 C 1.21875 -10.3125 1.179688 -10.472656 1.140625 -10.640625 C 1.109375 -10.804688 1.09375 -10.898438 1.09375 -10.921875 L 2.703125 -10.921875 Z M 2.703125 0 "/></g></g><g style="fill:#183e9f;fill-opacity:1;"><g transform="translate(234.413168, 258.783924)"><path style="stroke:none" d="M 9.40625 0.078125 L 8.515625 0.078125 L 2.4375 -9.21875 L 2.4375 0 L 1.3125 0 L 1.3125 -9.9375 C 1.3125 -9.9375 1.289062 -10.007812 1.25 -10.15625 C 1.21875 -10.3125 1.179688 -10.472656 1.140625 -10.640625 C 1.109375 -10.804688 1.09375 -10.898438 1.09375 -10.921875 L 2.953125 -10.921875 L 8.265625 -2.75 L 8.265625 -10.921875 L 9.40625 -10.921875 Z M 9.40625 0.078125 "/></g></g><g style="fill:#183e9f;fill-opacity:1;"><g transform="translate(245.123155, 258.783924)"><path style="stroke:none" d="M 5.03125 0 L 3.59375 0 L 3.59375 -9.890625 L 0.359375 -9.890625 L 0.359375 -10.921875 L 8.3125 -10.921875 L 8.3125 -9.890625 L 5.03125 -9.890625 Z M 5.03125 0 "/></g></g><g style="fill:#183e9f;fill-opacity:1;"><g transform="translate(253.793142, 258.783924)"><path style="stroke:none" d="M 11.265625 0 L 9.890625 0 L 9.890625 -8.921875 L 6.59375 0.015625 L 5.765625 0.015625 L 2.46875 -8.921875 L 2.46875 0 L 1.328125 0 L 1.328125 -9.9375 L 1.109375 -10.921875 L 3.140625 -10.921875 L 6.3125 -2.421875 L 9.453125 -10.921875 L 11.265625 -10.921875 Z M 11.265625 0 "/></g></g><g style="fill:#183e9f;fill-opacity:1;"><g transform="translate(266.363125, 258.783924)"><path style="stroke:none" d="M 7.640625 0 L 1.296875 0 L 1.296875 -9.9375 C 1.296875 -9.9375 1.273438 -10.007812 1.234375 -10.15625 C 1.203125 -10.3125 1.164062 -10.472656 1.125 -10.640625 C 1.09375 -10.804688 1.078125 -10.898438 1.078125 -10.921875 L 7.640625 -10.921875 L 7.640625 -9.890625 L 2.6875 -9.890625 L 2.6875 -6.125 L 6.53125 -6.125 L 6.53125 -5.09375 L 2.6875 -5.09375 L 2.6875 -1.03125 L 7.640625 -1.03125 Z M 7.640625 0 "/></g></g><g style="fill:#183e9f;fill-opacity:1;"><g transform="translate(274.598121, 258.783924)"><path style="stroke:none" d="M 9.40625 0.078125 L 8.515625 0.078125 L 2.4375 -9.21875 L 2.4375 0 L 1.3125 0 L 1.3125 -9.9375 C 1.3125 -9.9375 1.289062 -10.007812 1.25 -10.15625 C 1.21875 -10.3125 1.179688 -10.472656 1.140625 -10.640625 C 1.109375 -10.804688 1.09375 -10.898438 1.09375 -10.921875 L 2.953125 -10.921875 L 8.265625 -2.75 L 8.265625 -10.921875 L 9.40625 -10.921875 Z M 9.40625 0.078125 "/></g></g><g style="fill:#183e9f;fill-opacity:1;"><g transform="translate(285.308108, 258.783924)"><path style="stroke:none" d="M 5.03125 0 L 3.59375 0 L 3.59375 -9.890625 L 0.359375 -9.890625 L 0.359375 -10.921875 L 8.3125 -10.921875 L 8.3125 -9.890625 L 5.03125 -9.890625 Z M 5.03125 0 "/></g></g></g></svg>