<svg xmlns="http://www.w3.org/2000/svg" xmlns:xlink="http://www.w3.org/1999/xlink" width="220" zoomAndPan="magnify" viewBox="0 0 165 37.5" height="50" preserveAspectRatio="xMidYMid meet" version="1.2"><defs><clipPath id="19bd486ad4"><path d="M 60.441406 0 L 111 0 L 111 19.984375 L 60.441406 19.984375 Z M 60.441406 0 "/></clipPath></defs><g id="dd740a088f"><g clip-rule="nonzero" clip-path="url(#19bd486ad4)"><path style=" stroke:none;fill-rule:nonzero;fill:#183172;fill-opacity:1;" d="M 109.914062 14.035156 C 109.285156 13.925781 108.734375 14.269531 108.605469 14.835938 C 108.496094 15.335938 108.828125 15.832031 109.410156 15.957031 C 109.648438 16.003906 109.675781 16.113281 109.65625 16.308594 C 109.558594 17.191406 108.984375 17.722656 108.085938 17.75 C 106.980469 17.777344 105.925781 17.511719 104.882812 17.210938 C 103.707031 16.878906 102.589844 16.40625 101.613281 15.648438 C 100.863281 15.0625 100.335938 14.335938 100.300781 13.347656 C 100.289062 12.9375 100.316406 12.519531 100.296875 12.113281 C 100.246094 10.9375 100.757812 10.054688 101.679688 9.375 C 102.71875 8.601562 103.898438 8.144531 105.136719 7.832031 C 106.160156 7.566406 107.191406 7.324219 108.269531 7.40625 C 109.121094 7.476562 109.667969 8.015625 109.722656 8.867188 C 109.738281 9.066406 109.675781 9.164062 109.472656 9.210938 C 108.953125 9.324219 108.609375 9.734375 108.625 10.179688 C 108.644531 10.652344 109.011719 11.054688 109.53125 11.140625 C 109.957031 11.21875 110.332031 11.101562 110.625 10.773438 C 110.863281 10.5 110.933594 10.171875 110.78125 9.851562 C 110.644531 9.566406 110.636719 9.277344 110.632812 8.976562 C 110.597656 8.105469 110.261719 7.378906 109.476562 6.929688 C 109.039062 6.675781 108.554688 6.589844 108.058594 6.574219 C 107.136719 6.539062 106.25 6.726562 105.367188 6.929688 C 103.933594 7.265625 102.554688 7.742188 101.332031 8.582031 C 100.480469 9.175781 99.796875 9.90625 99.515625 10.9375 C 99.476562 11.085938 99.375 11.109375 99.25 11.128906 C 98.832031 11.203125 98.480469 11.386719 98.246094 11.734375 C 98.117188 11.933594 97.96875 11.96875 97.761719 11.949219 C 97.597656 11.933594 97.441406 11.921875 97.277344 11.90625 C 97.269531 11.941406 97.261719 11.96875 97.257812 12.003906 L 87.828125 12.003906 C 87.625 12.003906 87.453125 12.152344 87.417969 12.351562 L 86.648438 17.054688 L 84.769531 6.023438 C 84.734375 5.832031 84.570312 5.6875 84.378906 5.671875 C 84.183594 5.667969 84.011719 5.789062 83.957031 5.980469 L 82.101562 12.972656 L 78.015625 12.972656 L 77.007812 8.839844 C 76.960938 8.644531 76.773438 8.507812 76.570312 8.527344 C 76.367188 8.546875 76.207031 8.710938 76.195312 8.917969 L 75.710938 16.726562 L 74.1875 12.570312 C 74.125 12.40625 73.96875 12.296875 73.796875 12.296875 L 68.472656 12.296875 C 68.847656 11.933594 69.238281 11.585938 69.613281 11.246094 C 70.554688 10.382812 71.53125 9.496094 72.378906 8.492188 C 73.328125 7.378906 74.199219 6.097656 74.207031 4.316406 C 74.207031 4.300781 74.207031 4.289062 74.207031 4.28125 C 74.199219 4.238281 74.199219 4.191406 74.199219 4.144531 C 74.195312 3.988281 74.179688 3.761719 74.140625 3.550781 C 73.886719 2.15625 72.910156 1.03125 71.523438 0.53125 C 70.089844 0.0117188 68.554688 0.273438 67.421875 1.234375 L 67.40625 1.25 C 67.378906 1.269531 67.359375 1.289062 67.332031 1.3125 C 67.304688 1.289062 67.285156 1.269531 67.257812 1.25 L 67.238281 1.234375 C 66.097656 0.265625 64.5625 0 63.128906 0.519531 C 61.742188 1.023438 60.757812 2.152344 60.511719 3.542969 C 60.472656 3.761719 60.457031 3.980469 60.449219 4.136719 C 60.449219 4.191406 60.445312 4.238281 60.445312 4.28125 C 60.445312 4.292969 60.445312 4.308594 60.445312 4.316406 C 60.449219 6.0625 61.289062 7.320312 62.21875 8.417969 C 62.042969 8.648438 61.933594 8.9375 61.933594 9.25 C 61.933594 10.003906 62.539062 10.609375 63.289062 10.609375 C 64.042969 10.609375 64.648438 10.003906 64.648438 9.25 C 64.648438 8.5 64.042969 7.890625 63.289062 7.890625 C 63.160156 7.890625 63.03125 7.914062 62.910156 7.945312 C 61.9375 6.800781 61.289062 5.75 61.277344 4.328125 C 61.277344 4.289062 61.285156 4.238281 61.285156 4.183594 C 61.289062 4.035156 61.304688 3.859375 61.332031 3.6875 C 61.53125 2.59375 62.308594 1.699219 63.414062 1.296875 C 64.566406 0.878906 65.796875 1.085938 66.703125 1.851562 L 66.71875 1.863281 C 66.855469 1.980469 66.984375 2.089844 67.140625 2.171875 C 67.257812 2.234375 67.402344 2.234375 67.515625 2.171875 C 67.675781 2.089844 67.804688 1.980469 67.941406 1.863281 L 67.953125 1.851562 C 68.863281 1.085938 70.089844 0.878906 71.246094 1.296875 C 72.351562 1.691406 73.128906 2.585938 73.328125 3.6875 C 73.355469 3.859375 73.367188 4.042969 73.375 4.183594 C 73.375 4.238281 73.382812 4.289062 73.382812 4.328125 C 73.367188 5.75 72.71875 6.808594 71.75 7.953125 C 70.929688 8.917969 69.980469 9.789062 69.054688 10.628906 C 68.425781 11.203125 67.769531 11.796875 67.160156 12.417969 C 67.046875 12.535156 67.011719 12.71875 67.074219 12.871094 C 67.132812 13.027344 67.292969 13.121094 67.457031 13.121094 L 73.503906 13.121094 L 75.613281 18.863281 C 75.683594 19.046875 75.867188 19.15625 76.066406 19.128906 C 76.257812 19.101562 76.40625 18.9375 76.417969 18.746094 L 76.855469 11.695312 L 77.292969 13.484375 C 77.339844 13.667969 77.503906 13.796875 77.695312 13.796875 L 82.421875 13.796875 C 82.613281 13.796875 82.777344 13.667969 82.824219 13.492188 L 84.269531 8.035156 L 86.246094 19.636719 C 86.277344 19.832031 86.449219 19.984375 86.652344 19.984375 C 86.859375 19.984375 87.03125 19.832031 87.0625 19.636719 L 88.175781 12.835938 L 97.148438 12.835938 C 97.140625 12.890625 97.132812 12.945312 97.121094 13 C 97.394531 13.011719 97.5625 13.027344 97.835938 13.046875 C 97.988281 13.0625 98.136719 13.089844 98.238281 13.238281 C 98.480469 13.585938 98.832031 13.777344 99.242188 13.851562 C 99.40625 13.878906 99.476562 13.953125 99.511719 14.105469 C 99.625 14.605469 99.871094 15.039062 100.191406 15.4375 C 100.890625 16.296875 101.796875 16.871094 102.792969 17.308594 C 104.519531 18.058594 106.316406 18.582031 108.222656 18.550781 C 109.511719 18.523438 110.453125 17.628906 110.554688 16.34375 C 110.582031 15.976562 110.535156 15.59375 110.769531 15.265625 C 110.789062 15.238281 110.789062 15.199219 110.789062 15.15625 C 110.871094 14.609375 110.5 14.140625 109.914062 14.035156 Z M 63.980469 9.25 C 63.980469 9.632812 63.667969 9.949219 63.285156 9.949219 C 62.902344 9.949219 62.585938 9.632812 62.585938 9.25 C 62.585938 8.867188 62.902344 8.554688 63.285156 8.554688 C 63.667969 8.554688 63.980469 8.867188 63.980469 9.25 Z M 63.980469 9.25 "/></g><g style="fill:#343233;fill-opacity:1;"><g transform="translate(60.952372, 26.304946)"><path style="stroke:none" d="M 4.796875 0 L 4.78125 -3.015625 L 3.28125 -0.515625 L 2.90625 -0.515625 L 1.421875 -2.984375 L 1.421875 0 L 0.609375 0 L 0.609375 -4.546875 L 1.3125 -4.546875 L 3.109375 -1.53125 L 4.890625 -4.546875 L 5.578125 -4.546875 L 5.59375 0 Z M 4.796875 0 "/></g></g><g style="fill:#343233;fill-opacity:1;"><g transform="translate(67.16225, 26.304946)"><path style="stroke:none" d="M 4.03125 -0.703125 L 4.03125 0 L 0.609375 0 L 0.609375 -4.546875 L 3.9375 -4.546875 L 3.9375 -3.84375 L 1.453125 -3.84375 L 1.453125 -2.65625 L 3.65625 -2.65625 L 3.65625 -1.96875 L 1.453125 -1.96875 L 1.453125 -0.703125 Z M 4.03125 -0.703125 "/></g></g><g style="fill:#343233;fill-opacity:1;"><g transform="translate(71.518919, 26.304946)"><path style="stroke:none" d="M 3.59375 0 L 2.65625 -1.328125 C 2.613281 -1.328125 2.554688 -1.328125 2.484375 -1.328125 L 1.453125 -1.328125 L 1.453125 0 L 0.609375 0 L 0.609375 -4.546875 L 2.484375 -4.546875 C 2.878906 -4.546875 3.222656 -4.476562 3.515625 -4.34375 C 3.804688 -4.21875 4.03125 -4.035156 4.1875 -3.796875 C 4.34375 -3.554688 4.421875 -3.269531 4.421875 -2.9375 C 4.421875 -2.59375 4.335938 -2.296875 4.171875 -2.046875 C 4.003906 -1.796875 3.765625 -1.613281 3.453125 -1.5 L 4.5 0 Z M 3.5625 -2.9375 C 3.5625 -3.21875 3.46875 -3.4375 3.28125 -3.59375 C 3.09375 -3.75 2.8125 -3.828125 2.4375 -3.828125 L 1.453125 -3.828125 L 1.453125 -2.015625 L 2.4375 -2.015625 C 2.8125 -2.015625 3.09375 -2.09375 3.28125 -2.25 C 3.46875 -2.414062 3.5625 -2.644531 3.5625 -2.9375 Z M 3.5625 -2.9375 "/></g></g><g style="fill:#343233;fill-opacity:1;"><g transform="translate(76.272241, 26.304946)"><path style="stroke:none" d="M 2.734375 0.0625 C 2.273438 0.0625 1.859375 -0.0351562 1.484375 -0.234375 C 1.109375 -0.441406 0.8125 -0.722656 0.59375 -1.078125 C 0.382812 -1.429688 0.28125 -1.832031 0.28125 -2.28125 C 0.28125 -2.71875 0.382812 -3.113281 0.59375 -3.46875 C 0.8125 -3.832031 1.109375 -4.113281 1.484375 -4.3125 C 1.859375 -4.507812 2.273438 -4.609375 2.734375 -4.609375 C 3.203125 -4.609375 3.617188 -4.507812 3.984375 -4.3125 C 4.359375 -4.113281 4.648438 -3.832031 4.859375 -3.46875 C 5.078125 -3.113281 5.1875 -2.71875 5.1875 -2.28125 C 5.1875 -1.832031 5.078125 -1.429688 4.859375 -1.078125 C 4.648438 -0.722656 4.359375 -0.441406 3.984375 -0.234375 C 3.617188 -0.0351562 3.203125 0.0625 2.734375 0.0625 Z M 2.734375 -0.671875 C 3.035156 -0.671875 3.304688 -0.738281 3.546875 -0.875 C 3.796875 -1.007812 3.988281 -1.195312 4.125 -1.4375 C 4.257812 -1.6875 4.328125 -1.96875 4.328125 -2.28125 C 4.328125 -2.582031 4.257812 -2.851562 4.125 -3.09375 C 3.988281 -3.34375 3.796875 -3.535156 3.546875 -3.671875 C 3.304688 -3.804688 3.035156 -3.875 2.734375 -3.875 C 2.429688 -3.875 2.15625 -3.804688 1.90625 -3.671875 C 1.664062 -3.535156 1.476562 -3.34375 1.34375 -3.09375 C 1.207031 -2.851562 1.140625 -2.582031 1.140625 -2.28125 C 1.140625 -1.96875 1.207031 -1.6875 1.34375 -1.4375 C 1.476562 -1.195312 1.664062 -1.007812 1.90625 -0.875 C 2.15625 -0.738281 2.429688 -0.671875 2.734375 -0.671875 Z M 2.734375 -0.671875 "/></g></g><g style="fill:#343233;fill-opacity:1;"><g transform="translate(81.747338, 26.304946)"><path style="stroke:none" d=""/></g></g><g style="fill:#343233;fill-opacity:1;"><g transform="translate(83.542026, 26.304946)"><path style="stroke:none" d="M 0.609375 -4.546875 L 2.59375 -4.546875 C 3.082031 -4.546875 3.515625 -4.453125 3.890625 -4.265625 C 4.265625 -4.078125 4.554688 -3.8125 4.765625 -3.46875 C 4.972656 -3.125 5.078125 -2.726562 5.078125 -2.28125 C 5.078125 -1.820312 4.972656 -1.421875 4.765625 -1.078125 C 4.554688 -0.734375 4.265625 -0.46875 3.890625 -0.28125 C 3.515625 -0.09375 3.082031 0 2.59375 0 L 0.609375 0 Z M 2.5625 -0.71875 C 2.894531 -0.71875 3.1875 -0.78125 3.4375 -0.90625 C 3.695312 -1.03125 3.894531 -1.210938 4.03125 -1.453125 C 4.164062 -1.691406 4.234375 -1.96875 4.234375 -2.28125 C 4.234375 -2.59375 4.164062 -2.863281 4.03125 -3.09375 C 3.894531 -3.332031 3.695312 -3.515625 3.4375 -3.640625 C 3.1875 -3.765625 2.894531 -3.828125 2.5625 -3.828125 L 1.453125 -3.828125 L 1.453125 -0.71875 Z M 2.5625 -0.71875 "/></g></g><g style="fill:#343233;fill-opacity:1;"><g transform="translate(88.913083, 26.304946)"><path style="stroke:none" d="M 2.734375 0.0625 C 2.273438 0.0625 1.859375 -0.0351562 1.484375 -0.234375 C 1.109375 -0.441406 0.8125 -0.722656 0.59375 -1.078125 C 0.382812 -1.429688 0.28125 -1.832031 0.28125 -2.28125 C 0.28125 -2.71875 0.382812 -3.113281 0.59375 -3.46875 C 0.8125 -3.832031 1.109375 -4.113281 1.484375 -4.3125 C 1.859375 -4.507812 2.273438 -4.609375 2.734375 -4.609375 C 3.203125 -4.609375 3.617188 -4.507812 3.984375 -4.3125 C 4.359375 -4.113281 4.648438 -3.832031 4.859375 -3.46875 C 5.078125 -3.113281 5.1875 -2.71875 5.1875 -2.28125 C 5.1875 -1.832031 5.078125 -1.429688 4.859375 -1.078125 C 4.648438 -0.722656 4.359375 -0.441406 3.984375 -0.234375 C 3.617188 -0.0351562 3.203125 0.0625 2.734375 0.0625 Z M 2.734375 -0.671875 C 3.035156 -0.671875 3.304688 -0.738281 3.546875 -0.875 C 3.796875 -1.007812 3.988281 -1.195312 4.125 -1.4375 C 4.257812 -1.6875 4.328125 -1.96875 4.328125 -2.28125 C 4.328125 -2.582031 4.257812 -2.851562 4.125 -3.09375 C 3.988281 -3.34375 3.796875 -3.535156 3.546875 -3.671875 C 3.304688 -3.804688 3.035156 -3.875 2.734375 -3.875 C 2.429688 -3.875 2.15625 -3.804688 1.90625 -3.671875 C 1.664062 -3.535156 1.476562 -3.34375 1.34375 -3.09375 C 1.207031 -2.851562 1.140625 -2.582031 1.140625 -2.28125 C 1.140625 -1.96875 1.207031 -1.6875 1.34375 -1.4375 C 1.476562 -1.195312 1.664062 -1.007812 1.90625 -0.875 C 2.15625 -0.738281 2.429688 -0.671875 2.734375 -0.671875 Z M 2.734375 -0.671875 "/></g></g><g style="fill:#343233;fill-opacity:1;"><g transform="translate(94.38818, 26.304946)"><path style="stroke:none" d="M 2.71875 0.0625 C 2.257812 0.0625 1.84375 -0.0351562 1.46875 -0.234375 C 1.101562 -0.441406 0.8125 -0.722656 0.59375 -1.078125 C 0.382812 -1.429688 0.28125 -1.832031 0.28125 -2.28125 C 0.28125 -2.71875 0.382812 -3.113281 0.59375 -3.46875 C 0.8125 -3.832031 1.101562 -4.113281 1.46875 -4.3125 C 1.84375 -4.507812 2.257812 -4.609375 2.71875 -4.609375 C 3.09375 -4.609375 3.429688 -4.539062 3.734375 -4.40625 C 4.046875 -4.28125 4.3125 -4.097656 4.53125 -3.859375 L 3.984375 -3.34375 C 3.648438 -3.695312 3.242188 -3.875 2.765625 -3.875 C 2.453125 -3.875 2.171875 -3.804688 1.921875 -3.671875 C 1.671875 -3.535156 1.476562 -3.34375 1.34375 -3.09375 C 1.207031 -2.851562 1.140625 -2.582031 1.140625 -2.28125 C 1.140625 -1.96875 1.207031 -1.6875 1.34375 -1.4375 C 1.476562 -1.195312 1.671875 -1.007812 1.921875 -0.875 C 2.171875 -0.738281 2.453125 -0.671875 2.765625 -0.671875 C 3.242188 -0.671875 3.648438 -0.851562 3.984375 -1.21875 L 4.53125 -0.703125 C 4.3125 -0.453125 4.046875 -0.257812 3.734375 -0.125 C 3.429688 0 3.09375 0.0625 2.71875 0.0625 Z M 2.71875 0.0625 "/></g></g><g style="fill:#343233;fill-opacity:1;"><g transform="translate(99.115491, 26.304946)"><path style="stroke:none" d="M 1.53125 -3.828125 L 0.03125 -3.828125 L 0.03125 -4.546875 L 3.890625 -4.546875 L 3.890625 -3.828125 L 2.375 -3.828125 L 2.375 0 L 1.53125 0 Z M 1.53125 -3.828125 "/></g></g><g style="fill:#343233;fill-opacity:1;"><g transform="translate(103.029991, 26.304946)"><path style="stroke:none" d="M 2.734375 0.0625 C 2.273438 0.0625 1.859375 -0.0351562 1.484375 -0.234375 C 1.109375 -0.441406 0.8125 -0.722656 0.59375 -1.078125 C 0.382812 -1.429688 0.28125 -1.832031 0.28125 -2.28125 C 0.28125 -2.71875 0.382812 -3.113281 0.59375 -3.46875 C 0.8125 -3.832031 1.109375 -4.113281 1.484375 -4.3125 C 1.859375 -4.507812 2.273438 -4.609375 2.734375 -4.609375 C 3.203125 -4.609375 3.617188 -4.507812 3.984375 -4.3125 C 4.359375 -4.113281 4.648438 -3.832031 4.859375 -3.46875 C 5.078125 -3.113281 5.1875 -2.71875 5.1875 -2.28125 C 5.1875 -1.832031 5.078125 -1.429688 4.859375 -1.078125 C 4.648438 -0.722656 4.359375 -0.441406 3.984375 -0.234375 C 3.617188 -0.0351562 3.203125 0.0625 2.734375 0.0625 Z M 2.734375 -0.671875 C 3.035156 -0.671875 3.304688 -0.738281 3.546875 -0.875 C 3.796875 -1.007812 3.988281 -1.195312 4.125 -1.4375 C 4.257812 -1.6875 4.328125 -1.96875 4.328125 -2.28125 C 4.328125 -2.582031 4.257812 -2.851562 4.125 -3.09375 C 3.988281 -3.34375 3.796875 -3.535156 3.546875 -3.671875 C 3.304688 -3.804688 3.035156 -3.875 2.734375 -3.875 C 2.429688 -3.875 2.15625 -3.804688 1.90625 -3.671875 C 1.664062 -3.535156 1.476562 -3.34375 1.34375 -3.09375 C 1.207031 -2.851562 1.140625 -2.582031 1.140625 -2.28125 C 1.140625 -1.96875 1.207031 -1.6875 1.34375 -1.4375 C 1.476562 -1.195312 1.664062 -1.007812 1.90625 -0.875 C 2.15625 -0.738281 2.429688 -0.671875 2.734375 -0.671875 Z M 2.734375 -0.671875 "/></g></g><g style="fill:#343233;fill-opacity:1;"><g transform="translate(108.505085, 26.304946)"><path style="stroke:none" d="M 3.59375 0 L 2.65625 -1.328125 C 2.613281 -1.328125 2.554688 -1.328125 2.484375 -1.328125 L 1.453125 -1.328125 L 1.453125 0 L 0.609375 0 L 0.609375 -4.546875 L 2.484375 -4.546875 C 2.878906 -4.546875 3.222656 -4.476562 3.515625 -4.34375 C 3.804688 -4.21875 4.03125 -4.035156 4.1875 -3.796875 C 4.34375 -3.554688 4.421875 -3.269531 4.421875 -2.9375 C 4.421875 -2.59375 4.335938 -2.296875 4.171875 -2.046875 C 4.003906 -1.796875 3.765625 -1.613281 3.453125 -1.5 L 4.5 0 Z M 3.5625 -2.9375 C 3.5625 -3.21875 3.46875 -3.4375 3.28125 -3.59375 C 3.09375 -3.75 2.8125 -3.828125 2.4375 -3.828125 L 1.453125 -3.828125 L 1.453125 -2.015625 L 2.4375 -2.015625 C 2.8125 -2.015625 3.09375 -2.09375 3.28125 -2.25 C 3.46875 -2.414062 3.5625 -2.644531 3.5625 -2.9375 Z M 3.5625 -2.9375 "/></g></g><g style="fill:#343233;fill-opacity:1;"><g transform="translate(69.720391, 30.182226)"><path style="stroke:none" d="M 0.9375 -0.21875 C 1.019531 -0.21875 1.085938 -0.222656 1.140625 -0.234375 C 1.191406 -0.253906 1.234375 -0.28125 1.265625 -0.3125 C 1.304688 -0.34375 1.332031 -0.378906 1.34375 -0.421875 C 1.363281 -0.460938 1.375 -0.507812 1.375 -0.5625 C 1.375 -0.664062 1.335938 -0.742188 1.265625 -0.796875 C 1.191406 -0.859375 1.082031 -0.890625 0.9375 -0.890625 L 0.515625 -0.890625 L 0.515625 -0.21875 Z M 0.515625 -1.765625 L 0.515625 -1.09375 L 0.875 -1.09375 C 0.945312 -1.09375 1.007812 -1.097656 1.0625 -1.109375 C 1.113281 -1.128906 1.15625 -1.148438 1.1875 -1.171875 C 1.226562 -1.203125 1.257812 -1.238281 1.28125 -1.28125 C 1.300781 -1.320312 1.3125 -1.367188 1.3125 -1.421875 C 1.3125 -1.535156 1.273438 -1.617188 1.203125 -1.671875 C 1.128906 -1.734375 1.019531 -1.765625 0.875 -1.765625 Z M 0.875 -1.96875 C 1 -1.96875 1.101562 -1.957031 1.1875 -1.9375 C 1.28125 -1.914062 1.351562 -1.878906 1.40625 -1.828125 C 1.46875 -1.785156 1.507812 -1.734375 1.53125 -1.671875 C 1.5625 -1.609375 1.578125 -1.535156 1.578125 -1.453125 C 1.578125 -1.410156 1.566406 -1.363281 1.546875 -1.3125 C 1.535156 -1.269531 1.515625 -1.226562 1.484375 -1.1875 C 1.453125 -1.15625 1.410156 -1.125 1.359375 -1.09375 C 1.316406 -1.0625 1.265625 -1.035156 1.203125 -1.015625 C 1.347656 -0.984375 1.457031 -0.929688 1.53125 -0.859375 C 1.601562 -0.785156 1.640625 -0.6875 1.640625 -0.5625 C 1.640625 -0.476562 1.625 -0.398438 1.59375 -0.328125 C 1.5625 -0.265625 1.515625 -0.207031 1.453125 -0.15625 C 1.398438 -0.101562 1.328125 -0.0625 1.234375 -0.03125 C 1.148438 -0.0078125 1.054688 0 0.953125 0 L 0.25 0 L 0.25 -1.96875 Z M 0.875 -1.96875 "/></g></g><g style="fill:#343233;fill-opacity:1;"><g transform="translate(71.50116, 30.182226)"><path style="stroke:none" d="M 2.078125 -0.984375 C 2.078125 -0.835938 2.050781 -0.703125 2 -0.578125 C 1.957031 -0.453125 1.890625 -0.34375 1.796875 -0.25 C 1.710938 -0.164062 1.609375 -0.0976562 1.484375 -0.046875 C 1.367188 -0.00390625 1.238281 0.015625 1.09375 0.015625 C 0.945312 0.015625 0.816406 -0.00390625 0.703125 -0.046875 C 0.585938 -0.0976562 0.484375 -0.164062 0.390625 -0.25 C 0.304688 -0.34375 0.238281 -0.453125 0.1875 -0.578125 C 0.144531 -0.703125 0.125 -0.835938 0.125 -0.984375 C 0.125 -1.128906 0.144531 -1.265625 0.1875 -1.390625 C 0.238281 -1.515625 0.304688 -1.617188 0.390625 -1.703125 C 0.484375 -1.796875 0.585938 -1.867188 0.703125 -1.921875 C 0.816406 -1.972656 0.945312 -2 1.09375 -2 C 1.238281 -2 1.367188 -1.972656 1.484375 -1.921875 C 1.609375 -1.867188 1.710938 -1.796875 1.796875 -1.703125 C 1.890625 -1.617188 1.957031 -1.515625 2 -1.390625 C 2.050781 -1.265625 2.078125 -1.128906 2.078125 -0.984375 Z M 1.796875 -0.984375 C 1.796875 -1.109375 1.78125 -1.21875 1.75 -1.3125 C 1.71875 -1.40625 1.671875 -1.484375 1.609375 -1.546875 C 1.546875 -1.617188 1.472656 -1.671875 1.390625 -1.703125 C 1.304688 -1.742188 1.207031 -1.765625 1.09375 -1.765625 C 0.988281 -1.765625 0.894531 -1.742188 0.8125 -1.703125 C 0.726562 -1.671875 0.65625 -1.617188 0.59375 -1.546875 C 0.53125 -1.484375 0.484375 -1.40625 0.453125 -1.3125 C 0.421875 -1.21875 0.40625 -1.109375 0.40625 -0.984375 C 0.40625 -0.859375 0.421875 -0.75 0.453125 -0.65625 C 0.484375 -0.5625 0.53125 -0.476562 0.59375 -0.40625 C 0.65625 -0.34375 0.726562 -0.289062 0.8125 -0.25 C 0.894531 -0.21875 0.988281 -0.203125 1.09375 -0.203125 C 1.207031 -0.203125 1.304688 -0.21875 1.390625 -0.25 C 1.472656 -0.289062 1.546875 -0.34375 1.609375 -0.40625 C 1.671875 -0.476562 1.71875 -0.5625 1.75 -0.65625 C 1.78125 -0.75 1.796875 -0.859375 1.796875 -0.984375 Z M 1.796875 -0.984375 "/></g></g><g style="fill:#343233;fill-opacity:1;"><g transform="translate(73.706118, 30.182226)"><path style="stroke:none" d="M 2.078125 -0.984375 C 2.078125 -0.835938 2.050781 -0.703125 2 -0.578125 C 1.957031 -0.453125 1.890625 -0.34375 1.796875 -0.25 C 1.710938 -0.164062 1.609375 -0.0976562 1.484375 -0.046875 C 1.367188 -0.00390625 1.238281 0.015625 1.09375 0.015625 C 0.945312 0.015625 0.816406 -0.00390625 0.703125 -0.046875 C 0.585938 -0.0976562 0.484375 -0.164062 0.390625 -0.25 C 0.304688 -0.34375 0.238281 -0.453125 0.1875 -0.578125 C 0.144531 -0.703125 0.125 -0.835938 0.125 -0.984375 C 0.125 -1.128906 0.144531 -1.265625 0.1875 -1.390625 C 0.238281 -1.515625 0.304688 -1.617188 0.390625 -1.703125 C 0.484375 -1.796875 0.585938 -1.867188 0.703125 -1.921875 C 0.816406 -1.972656 0.945312 -2 1.09375 -2 C 1.238281 -2 1.367188 -1.972656 1.484375 -1.921875 C 1.609375 -1.867188 1.710938 -1.796875 1.796875 -1.703125 C 1.890625 -1.617188 1.957031 -1.515625 2 -1.390625 C 2.050781 -1.265625 2.078125 -1.128906 2.078125 -0.984375 Z M 1.796875 -0.984375 C 1.796875 -1.109375 1.78125 -1.21875 1.75 -1.3125 C 1.71875 -1.40625 1.671875 -1.484375 1.609375 -1.546875 C 1.546875 -1.617188 1.472656 -1.671875 1.390625 -1.703125 C 1.304688 -1.742188 1.207031 -1.765625 1.09375 -1.765625 C 0.988281 -1.765625 0.894531 -1.742188 0.8125 -1.703125 C 0.726562 -1.671875 0.65625 -1.617188 0.59375 -1.546875 C 0.53125 -1.484375 0.484375 -1.40625 0.453125 -1.3125 C 0.421875 -1.21875 0.40625 -1.109375 0.40625 -0.984375 C 0.40625 -0.859375 0.421875 -0.75 0.453125 -0.65625 C 0.484375 -0.5625 0.53125 -0.476562 0.59375 -0.40625 C 0.65625 -0.34375 0.726562 -0.289062 0.8125 -0.25 C 0.894531 -0.21875 0.988281 -0.203125 1.09375 -0.203125 C 1.207031 -0.203125 1.304688 -0.21875 1.390625 -0.25 C 1.472656 -0.289062 1.546875 -0.34375 1.609375 -0.40625 C 1.671875 -0.476562 1.71875 -0.5625 1.75 -0.65625 C 1.78125 -0.75 1.796875 -0.859375 1.796875 -0.984375 Z M 1.796875 -0.984375 "/></g></g><g style="fill:#343233;fill-opacity:1;"><g transform="translate(75.911075, 30.182226)"><path style="stroke:none" d="M 0.515625 -1.109375 L 0.625 -1.109375 C 0.65625 -1.109375 0.679688 -1.113281 0.703125 -1.125 C 0.722656 -1.132812 0.742188 -1.148438 0.765625 -1.171875 L 1.421875 -1.90625 C 1.429688 -1.925781 1.445312 -1.941406 1.46875 -1.953125 C 1.488281 -1.960938 1.515625 -1.96875 1.546875 -1.96875 L 1.765625 -1.96875 L 1.015625 -1.125 C 1.003906 -1.101562 0.988281 -1.082031 0.96875 -1.0625 C 0.945312 -1.050781 0.929688 -1.039062 0.921875 -1.03125 C 0.941406 -1.019531 0.960938 -1.003906 0.984375 -0.984375 C 1.003906 -0.972656 1.023438 -0.957031 1.046875 -0.9375 L 1.828125 0 L 1.59375 0 C 1.570312 0 1.554688 0 1.546875 0 C 1.535156 0 1.523438 0 1.515625 0 C 1.503906 -0.0078125 1.492188 -0.0195312 1.484375 -0.03125 C 1.484375 -0.0390625 1.476562 -0.0507812 1.46875 -0.0625 L 0.796875 -0.84375 C 0.773438 -0.863281 0.753906 -0.878906 0.734375 -0.890625 C 0.710938 -0.898438 0.679688 -0.90625 0.640625 -0.90625 L 0.515625 -0.90625 L 0.515625 0 L 0.25 0 L 0.25 -1.96875 L 0.515625 -1.96875 Z M 0.515625 -1.109375 "/></g></g><g style="fill:#343233;fill-opacity:1;"><g transform="translate(77.735917, 30.182226)"><path style="stroke:none" d=""/></g></g><g style="fill:#343233;fill-opacity:1;"><g transform="translate(78.441063, 30.182226)"><path style="stroke:none" d="M 0.984375 -0.78125 L 0.984375 0 L 0.71875 0 L 0.71875 -0.78125 L 0 -1.96875 L 0.234375 -1.96875 C 0.253906 -1.96875 0.269531 -1.960938 0.28125 -1.953125 C 0.300781 -1.941406 0.316406 -1.925781 0.328125 -1.90625 L 0.78125 -1.140625 C 0.789062 -1.109375 0.800781 -1.078125 0.8125 -1.046875 C 0.832031 -1.023438 0.847656 -1 0.859375 -0.96875 C 0.867188 -1 0.878906 -1.023438 0.890625 -1.046875 C 0.910156 -1.078125 0.925781 -1.109375 0.9375 -1.140625 L 1.390625 -1.90625 C 1.398438 -1.925781 1.410156 -1.941406 1.421875 -1.953125 C 1.429688 -1.960938 1.453125 -1.96875 1.484375 -1.96875 L 1.71875 -1.96875 Z M 0.984375 -0.78125 "/></g></g><g style="fill:#343233;fill-opacity:1;"><g transform="translate(80.159856, 30.182226)"><path style="stroke:none" d="M 2.078125 -0.984375 C 2.078125 -0.835938 2.050781 -0.703125 2 -0.578125 C 1.957031 -0.453125 1.890625 -0.34375 1.796875 -0.25 C 1.710938 -0.164062 1.609375 -0.0976562 1.484375 -0.046875 C 1.367188 -0.00390625 1.238281 0.015625 1.09375 0.015625 C 0.945312 0.015625 0.816406 -0.00390625 0.703125 -0.046875 C 0.585938 -0.0976562 0.484375 -0.164062 0.390625 -0.25 C 0.304688 -0.34375 0.238281 -0.453125 0.1875 -0.578125 C 0.144531 -0.703125 0.125 -0.835938 0.125 -0.984375 C 0.125 -1.128906 0.144531 -1.265625 0.1875 -1.390625 C 0.238281 -1.515625 0.304688 -1.617188 0.390625 -1.703125 C 0.484375 -1.796875 0.585938 -1.867188 0.703125 -1.921875 C 0.816406 -1.972656 0.945312 -2 1.09375 -2 C 1.238281 -2 1.367188 -1.972656 1.484375 -1.921875 C 1.609375 -1.867188 1.710938 -1.796875 1.796875 -1.703125 C 1.890625 -1.617188 1.957031 -1.515625 2 -1.390625 C 2.050781 -1.265625 2.078125 -1.128906 2.078125 -0.984375 Z M 1.796875 -0.984375 C 1.796875 -1.109375 1.78125 -1.21875 1.75 -1.3125 C 1.71875 -1.40625 1.671875 -1.484375 1.609375 -1.546875 C 1.546875 -1.617188 1.472656 -1.671875 1.390625 -1.703125 C 1.304688 -1.742188 1.207031 -1.765625 1.09375 -1.765625 C 0.988281 -1.765625 0.894531 -1.742188 0.8125 -1.703125 C 0.726562 -1.671875 0.65625 -1.617188 0.59375 -1.546875 C 0.53125 -1.484375 0.484375 -1.40625 0.453125 -1.3125 C 0.421875 -1.21875 0.40625 -1.109375 0.40625 -0.984375 C 0.40625 -0.859375 0.421875 -0.75 0.453125 -0.65625 C 0.484375 -0.5625 0.53125 -0.476562 0.59375 -0.40625 C 0.65625 -0.34375 0.726562 -0.289062 0.8125 -0.25 C 0.894531 -0.21875 0.988281 -0.203125 1.09375 -0.203125 C 1.207031 -0.203125 1.304688 -0.21875 1.390625 -0.25 C 1.472656 -0.289062 1.546875 -0.34375 1.609375 -0.40625 C 1.671875 -0.476562 1.71875 -0.5625 1.75 -0.65625 C 1.78125 -0.75 1.796875 -0.859375 1.796875 -0.984375 Z M 1.796875 -0.984375 "/></g></g><g style="fill:#343233;fill-opacity:1;"><g transform="translate(82.364814, 30.182226)"><path style="stroke:none" d="M 1.015625 -0.21875 C 1.097656 -0.21875 1.171875 -0.226562 1.234375 -0.25 C 1.296875 -0.28125 1.347656 -0.316406 1.390625 -0.359375 C 1.429688 -0.410156 1.460938 -0.472656 1.484375 -0.546875 C 1.515625 -0.617188 1.53125 -0.691406 1.53125 -0.765625 L 1.53125 -1.96875 L 1.796875 -1.96875 L 1.796875 -0.765625 C 1.796875 -0.660156 1.773438 -0.554688 1.734375 -0.453125 C 1.703125 -0.359375 1.648438 -0.273438 1.578125 -0.203125 C 1.515625 -0.128906 1.429688 -0.0703125 1.328125 -0.03125 C 1.234375 0 1.128906 0.015625 1.015625 0.015625 C 0.890625 0.015625 0.773438 0 0.671875 -0.03125 C 0.578125 -0.0703125 0.492188 -0.128906 0.421875 -0.203125 C 0.359375 -0.273438 0.3125 -0.359375 0.28125 -0.453125 C 0.25 -0.554688 0.234375 -0.660156 0.234375 -0.765625 L 0.234375 -1.96875 L 0.5 -1.96875 L 0.5 -0.78125 C 0.5 -0.695312 0.507812 -0.617188 0.53125 -0.546875 C 0.550781 -0.472656 0.582031 -0.410156 0.625 -0.359375 C 0.675781 -0.316406 0.734375 -0.28125 0.796875 -0.25 C 0.859375 -0.226562 0.929688 -0.21875 1.015625 -0.21875 Z M 1.015625 -0.21875 "/></g></g><g style="fill:#343233;fill-opacity:1;"><g transform="translate(84.390732, 30.182226)"><path style="stroke:none" d="M 0.796875 -1.015625 C 0.867188 -1.015625 0.9375 -1.023438 1 -1.046875 C 1.0625 -1.066406 1.109375 -1.09375 1.140625 -1.125 C 1.179688 -1.15625 1.210938 -1.191406 1.234375 -1.234375 C 1.253906 -1.285156 1.265625 -1.34375 1.265625 -1.40625 C 1.265625 -1.519531 1.226562 -1.609375 1.15625 -1.671875 C 1.082031 -1.734375 0.96875 -1.765625 0.8125 -1.765625 L 0.515625 -1.765625 L 0.515625 -1.015625 Z M 1.703125 0 L 1.46875 0 C 1.414062 0 1.378906 -0.0195312 1.359375 -0.0625 L 0.859375 -0.765625 C 0.835938 -0.785156 0.816406 -0.800781 0.796875 -0.8125 C 0.785156 -0.820312 0.757812 -0.828125 0.71875 -0.828125 L 0.515625 -0.828125 L 0.515625 0 L 0.25 0 L 0.25 -1.96875 L 0.8125 -1.96875 C 0.9375 -1.96875 1.039062 -1.953125 1.125 -1.921875 C 1.21875 -1.898438 1.289062 -1.863281 1.34375 -1.8125 C 1.40625 -1.769531 1.453125 -1.710938 1.484375 -1.640625 C 1.515625 -1.578125 1.53125 -1.503906 1.53125 -1.421875 C 1.53125 -1.347656 1.519531 -1.28125 1.5 -1.21875 C 1.476562 -1.164062 1.445312 -1.113281 1.40625 -1.0625 C 1.363281 -1.019531 1.3125 -0.976562 1.25 -0.9375 C 1.1875 -0.90625 1.117188 -0.878906 1.046875 -0.859375 C 1.078125 -0.847656 1.109375 -0.820312 1.140625 -0.78125 Z M 1.703125 0 "/></g></g><g style="fill:#343233;fill-opacity:1;"><g transform="translate(86.116411, 30.182226)"><path style="stroke:none" d=""/></g></g><g style="fill:#343233;fill-opacity:1;"><g transform="translate(86.821557, 30.182226)"><path style="stroke:none" d="M 1.296875 -0.734375 L 0.984375 -1.53125 C 0.972656 -1.550781 0.960938 -1.578125 0.953125 -1.609375 C 0.941406 -1.640625 0.9375 -1.675781 0.9375 -1.71875 C 0.914062 -1.644531 0.894531 -1.582031 0.875 -1.53125 L 0.5625 -0.734375 Z M 1.859375 0 L 1.640625 0 C 1.617188 0 1.597656 -0.00390625 1.578125 -0.015625 C 1.566406 -0.0234375 1.5625 -0.0390625 1.5625 -0.0625 L 1.375 -0.53125 L 0.484375 -0.53125 L 0.296875 -0.0625 C 0.296875 -0.0390625 0.285156 -0.0234375 0.265625 -0.015625 C 0.253906 -0.00390625 0.238281 0 0.21875 0 L 0.015625 0 L 0.796875 -1.96875 L 1.0625 -1.96875 Z M 1.859375 0 "/></g></g><g style="fill:#343233;fill-opacity:1;"><g transform="translate(88.686337, 30.182226)"><path style="stroke:none" d="M 0.828125 -0.953125 C 0.910156 -0.953125 0.976562 -0.960938 1.03125 -0.984375 C 1.09375 -1.003906 1.140625 -1.03125 1.171875 -1.0625 C 1.210938 -1.101562 1.242188 -1.144531 1.265625 -1.1875 C 1.285156 -1.238281 1.296875 -1.296875 1.296875 -1.359375 C 1.296875 -1.484375 1.253906 -1.582031 1.171875 -1.65625 C 1.097656 -1.726562 0.984375 -1.765625 0.828125 -1.765625 L 0.515625 -1.765625 L 0.515625 -0.953125 Z M 0.828125 -1.96875 C 0.953125 -1.96875 1.0625 -1.953125 1.15625 -1.921875 C 1.25 -1.898438 1.328125 -1.859375 1.390625 -1.796875 C 1.453125 -1.742188 1.492188 -1.679688 1.515625 -1.609375 C 1.546875 -1.535156 1.5625 -1.453125 1.5625 -1.359375 C 1.5625 -1.265625 1.546875 -1.179688 1.515625 -1.109375 C 1.484375 -1.035156 1.4375 -0.96875 1.375 -0.90625 C 1.3125 -0.851562 1.234375 -0.8125 1.140625 -0.78125 C 1.054688 -0.75 0.953125 -0.734375 0.828125 -0.734375 L 0.515625 -0.734375 L 0.515625 0 L 0.25 0 L 0.25 -1.96875 Z M 0.828125 -1.96875 "/></g></g><g style="fill:#343233;fill-opacity:1;"><g transform="translate(90.340401, 30.182226)"><path style="stroke:none" d="M 0.828125 -0.953125 C 0.910156 -0.953125 0.976562 -0.960938 1.03125 -0.984375 C 1.09375 -1.003906 1.140625 -1.03125 1.171875 -1.0625 C 1.210938 -1.101562 1.242188 -1.144531 1.265625 -1.1875 C 1.285156 -1.238281 1.296875 -1.296875 1.296875 -1.359375 C 1.296875 -1.484375 1.253906 -1.582031 1.171875 -1.65625 C 1.097656 -1.726562 0.984375 -1.765625 0.828125 -1.765625 L 0.515625 -1.765625 L 0.515625 -0.953125 Z M 0.828125 -1.96875 C 0.953125 -1.96875 1.0625 -1.953125 1.15625 -1.921875 C 1.25 -1.898438 1.328125 -1.859375 1.390625 -1.796875 C 1.453125 -1.742188 1.492188 -1.679688 1.515625 -1.609375 C 1.546875 -1.535156 1.5625 -1.453125 1.5625 -1.359375 C 1.5625 -1.265625 1.546875 -1.179688 1.515625 -1.109375 C 1.484375 -1.035156 1.4375 -0.96875 1.375 -0.90625 C 1.3125 -0.851562 1.234375 -0.8125 1.140625 -0.78125 C 1.054688 -0.75 0.953125 -0.734375 0.828125 -0.734375 L 0.515625 -0.734375 L 0.515625 0 L 0.25 0 L 0.25 -1.96875 Z M 0.828125 -1.96875 "/></g></g><g style="fill:#343233;fill-opacity:1;"><g transform="translate(91.994465, 30.182226)"><path style="stroke:none" d="M 2.078125 -0.984375 C 2.078125 -0.835938 2.050781 -0.703125 2 -0.578125 C 1.957031 -0.453125 1.890625 -0.34375 1.796875 -0.25 C 1.710938 -0.164062 1.609375 -0.0976562 1.484375 -0.046875 C 1.367188 -0.00390625 1.238281 0.015625 1.09375 0.015625 C 0.945312 0.015625 0.816406 -0.00390625 0.703125 -0.046875 C 0.585938 -0.0976562 0.484375 -0.164062 0.390625 -0.25 C 0.304688 -0.34375 0.238281 -0.453125 0.1875 -0.578125 C 0.144531 -0.703125 0.125 -0.835938 0.125 -0.984375 C 0.125 -1.128906 0.144531 -1.265625 0.1875 -1.390625 C 0.238281 -1.515625 0.304688 -1.617188 0.390625 -1.703125 C 0.484375 -1.796875 0.585938 -1.867188 0.703125 -1.921875 C 0.816406 -1.972656 0.945312 -2 1.09375 -2 C 1.238281 -2 1.367188 -1.972656 1.484375 -1.921875 C 1.609375 -1.867188 1.710938 -1.796875 1.796875 -1.703125 C 1.890625 -1.617188 1.957031 -1.515625 2 -1.390625 C 2.050781 -1.265625 2.078125 -1.128906 2.078125 -0.984375 Z M 1.796875 -0.984375 C 1.796875 -1.109375 1.78125 -1.21875 1.75 -1.3125 C 1.71875 -1.40625 1.671875 -1.484375 1.609375 -1.546875 C 1.546875 -1.617188 1.472656 -1.671875 1.390625 -1.703125 C 1.304688 -1.742188 1.207031 -1.765625 1.09375 -1.765625 C 0.988281 -1.765625 0.894531 -1.742188 0.8125 -1.703125 C 0.726562 -1.671875 0.65625 -1.617188 0.59375 -1.546875 C 0.53125 -1.484375 0.484375 -1.40625 0.453125 -1.3125 C 0.421875 -1.21875 0.40625 -1.109375 0.40625 -0.984375 C 0.40625 -0.859375 0.421875 -0.75 0.453125 -0.65625 C 0.484375 -0.5625 0.53125 -0.476562 0.59375 -0.40625 C 0.65625 -0.34375 0.726562 -0.289062 0.8125 -0.25 C 0.894531 -0.21875 0.988281 -0.203125 1.09375 -0.203125 C 1.207031 -0.203125 1.304688 -0.21875 1.390625 -0.25 C 1.472656 -0.289062 1.546875 -0.34375 1.609375 -0.40625 C 1.671875 -0.476562 1.71875 -0.5625 1.75 -0.65625 C 1.78125 -0.75 1.796875 -0.859375 1.796875 -0.984375 Z M 1.796875 -0.984375 "/></g></g><g style="fill:#343233;fill-opacity:1;"><g transform="translate(94.199423, 30.182226)"><path style="stroke:none" d="M 0.515625 0 L 0.25 0 L 0.25 -1.96875 L 0.515625 -1.96875 Z M 0.515625 0 "/></g></g><g style="fill:#343233;fill-opacity:1;"><g transform="translate(94.970678, 30.182226)"><path style="stroke:none" d="M 1.84375 -1.96875 L 1.84375 0 L 1.71875 0 C 1.695312 0 1.675781 0 1.65625 0 C 1.644531 -0.0078125 1.632812 -0.0234375 1.625 -0.046875 L 0.484375 -1.53125 C 0.484375 -1.507812 0.484375 -1.488281 0.484375 -1.46875 C 0.484375 -1.445312 0.484375 -1.425781 0.484375 -1.40625 L 0.484375 0 L 0.25 0 L 0.25 -1.96875 L 0.390625 -1.96875 C 0.398438 -1.96875 0.410156 -1.96875 0.421875 -1.96875 C 0.429688 -1.96875 0.4375 -1.960938 0.4375 -1.953125 C 0.445312 -1.953125 0.453125 -1.945312 0.453125 -1.9375 C 0.460938 -1.9375 0.472656 -1.929688 0.484375 -1.921875 L 1.625 -0.4375 C 1.625 -0.46875 1.617188 -0.492188 1.609375 -0.515625 C 1.609375 -0.535156 1.609375 -0.554688 1.609375 -0.578125 L 1.609375 -1.96875 Z M 1.84375 -1.96875 "/></g></g><g style="fill:#343233;fill-opacity:1;"><g transform="translate(97.073721, 30.182226)"><path style="stroke:none" d="M 1.578125 -1.75 L 0.953125 -1.75 L 0.953125 0 L 0.6875 0 L 0.6875 -1.75 L 0.046875 -1.75 L 0.046875 -1.96875 L 1.578125 -1.96875 Z M 1.578125 -1.75 "/></g></g><g style="fill:#343233;fill-opacity:1;"><g transform="translate(98.700238, 30.182226)"><path style="stroke:none" d="M 2.296875 -1.96875 L 2.296875 0 L 2.0625 0 L 2.0625 -1.453125 C 2.0625 -1.472656 2.0625 -1.492188 2.0625 -1.515625 C 2.070312 -1.535156 2.078125 -1.554688 2.078125 -1.578125 L 1.390625 -0.34375 C 1.367188 -0.300781 1.335938 -0.28125 1.296875 -0.28125 L 1.265625 -0.28125 C 1.222656 -0.28125 1.191406 -0.300781 1.171875 -0.34375 L 0.484375 -1.578125 C 0.484375 -1.535156 0.484375 -1.492188 0.484375 -1.453125 L 0.484375 0 L 0.25 0 L 0.25 -1.96875 L 0.453125 -1.96875 C 0.472656 -1.96875 0.488281 -1.960938 0.5 -1.953125 C 0.507812 -1.953125 0.523438 -1.941406 0.546875 -1.921875 L 1.21875 -0.71875 C 1.226562 -0.6875 1.238281 -0.660156 1.25 -0.640625 C 1.257812 -0.617188 1.269531 -0.597656 1.28125 -0.578125 C 1.289062 -0.597656 1.300781 -0.617188 1.3125 -0.640625 C 1.320312 -0.671875 1.332031 -0.695312 1.34375 -0.71875 L 2.015625 -1.921875 C 2.023438 -1.941406 2.035156 -1.953125 2.046875 -1.953125 C 2.054688 -1.960938 2.078125 -1.96875 2.109375 -1.96875 Z M 2.296875 -1.96875 "/></g></g><g style="fill:#343233;fill-opacity:1;"><g transform="translate(101.257768, 30.182226)"><path style="stroke:none" d="M 1.46875 -0.21875 L 1.46875 0 L 0.25 0 L 0.25 -1.96875 L 1.46875 -1.96875 L 1.46875 -1.75 L 0.515625 -1.75 L 0.515625 -1.09375 L 1.28125 -1.09375 L 1.28125 -0.890625 L 0.515625 -0.890625 L 0.515625 -0.21875 Z M 1.46875 -0.21875 "/></g></g><g style="fill:#343233;fill-opacity:1;"><g transform="translate(102.84848, 30.182226)"><path style="stroke:none" d="M 1.84375 -1.96875 L 1.84375 0 L 1.71875 0 C 1.695312 0 1.675781 0 1.65625 0 C 1.644531 -0.0078125 1.632812 -0.0234375 1.625 -0.046875 L 0.484375 -1.53125 C 0.484375 -1.507812 0.484375 -1.488281 0.484375 -1.46875 C 0.484375 -1.445312 0.484375 -1.425781 0.484375 -1.40625 L 0.484375 0 L 0.25 0 L 0.25 -1.96875 L 0.390625 -1.96875 C 0.398438 -1.96875 0.410156 -1.96875 0.421875 -1.96875 C 0.429688 -1.96875 0.4375 -1.960938 0.4375 -1.953125 C 0.445312 -1.953125 0.453125 -1.945312 0.453125 -1.9375 C 0.460938 -1.9375 0.472656 -1.929688 0.484375 -1.921875 L 1.625 -0.4375 C 1.625 -0.46875 1.617188 -0.492188 1.609375 -0.515625 C 1.609375 -0.535156 1.609375 -0.554688 1.609375 -0.578125 L 1.609375 -1.96875 Z M 1.84375 -1.96875 "/></g></g><g style="fill:#343233;fill-opacity:1;"><g transform="translate(104.951522, 30.182226)"><path style="stroke:none" d="M 1.578125 -1.75 L 0.953125 -1.75 L 0.953125 0 L 0.6875 0 L 0.6875 -1.75 L 0.046875 -1.75 L 0.046875 -1.96875 L 1.578125 -1.96875 Z M 1.578125 -1.75 "/></g></g></g></svg>