<svg xmlns="http://www.w3.org/2000/svg" xmlns:xlink="http://www.w3.org/1999/xlink" width="500" zoomAndPan="magnify" viewBox="0 0 375 374.999991" height="500" preserveAspectRatio="xMidYMid meet" version="1.2"><defs><clipPath id="9acb8c1051"><path d="M 77.929688 119 L 294.679688 119 L 294.679688 204.476562 L 77.929688 204.476562 Z M 77.929688 119 "/></clipPath></defs><g id="29b0b705b1"><g clip-rule="nonzero" clip-path="url(#9acb8c1051)"><path style=" stroke:none;fill-rule:nonzero;fill:#183172;fill-opacity:1;" d="M 290.308594 178.488281 C 287.613281 178.019531 285.238281 179.484375 284.683594 181.917969 C 284.214844 184.058594 285.648438 186.195312 288.140625 186.722656 C 289.167969 186.929688 289.285156 187.398438 289.195312 188.25 C 288.785156 192.03125 286.324219 194.316406 282.453125 194.433594 C 277.707031 194.550781 273.191406 193.40625 268.707031 192.117188 C 263.667969 190.679688 258.859375 188.660156 254.667969 185.40625 C 251.445312 182.886719 249.1875 179.777344 249.042969 175.527344 C 248.984375 173.769531 249.101562 171.980469 249.011719 170.222656 C 248.808594 165.183594 251.003906 161.402344 254.960938 158.46875 C 259.417969 155.15625 264.488281 153.195312 269.792969 151.847656 C 274.1875 150.703125 278.613281 149.675781 283.246094 150.027344 C 286.910156 150.320312 289.253906 152.636719 289.488281 156.300781 C 289.546875 157.152344 289.285156 157.5625 288.40625 157.765625 C 286.175781 158.265625 284.710938 160.023438 284.769531 161.929688 C 284.859375 163.949219 286.441406 165.679688 288.667969 166.0625 C 290.484375 166.382812 292.097656 165.886719 293.359375 164.476562 C 294.382812 163.304688 294.675781 161.898438 294.03125 160.523438 C 293.445312 159.289062 293.417969 158.058594 293.386719 156.769531 C 293.242188 153.019531 291.804688 149.910156 288.433594 147.976562 C 286.558594 146.894531 284.476562 146.511719 282.335938 146.453125 C 278.378906 146.304688 274.570312 147.097656 270.789062 147.976562 C 264.632812 149.414062 258.714844 151.464844 253.46875 155.070312 C 249.804688 157.621094 246.871094 160.757812 245.671875 165.183594 C 245.496094 165.828125 245.054688 165.914062 244.527344 166.003906 C 242.738281 166.324219 241.214844 167.117188 240.21875 168.609375 C 239.664062 169.460938 239.019531 169.609375 238.136719 169.519531 C 237.433594 169.460938 236.761719 169.402344 236.058594 169.34375 C 236.027344 169.492188 236 169.609375 235.96875 169.753906 L 195.492188 169.753906 C 194.613281 169.753906 193.878906 170.398438 193.734375 171.25 L 190.421875 191.441406 L 182.363281 144.078125 C 182.214844 143.257812 181.511719 142.644531 180.691406 142.585938 C 179.839844 142.554688 179.109375 143.082031 178.875 143.902344 L 170.902344 173.917969 L 153.375 173.917969 L 149.035156 156.183594 C 148.832031 155.332031 148.039062 154.746094 147.160156 154.835938 C 146.28125 154.921875 145.609375 155.625 145.550781 156.507812 L 143.46875 190.035156 L 136.933594 172.1875 C 136.667969 171.484375 135.996094 171.015625 135.261719 171.015625 L 112.398438 171.015625 C 114.011719 169.460938 115.683594 167.964844 117.292969 166.5 C 121.339844 162.808594 125.53125 158.996094 129.164062 154.6875 C 133.238281 149.910156 136.992188 144.402344 137.019531 136.75 C 137.019531 136.691406 137.019531 136.632812 137.019531 136.605469 C 136.992188 136.429688 136.992188 136.222656 136.992188 136.019531 C 136.960938 135.34375 136.902344 134.378906 136.726562 133.46875 C 135.644531 127.488281 131.453125 122.652344 125.5 120.515625 C 119.347656 118.285156 112.75 119.398438 107.886719 123.53125 L 107.828125 123.589844 C 107.710938 123.679688 107.621094 123.765625 107.503906 123.855469 C 107.386719 123.765625 107.300781 123.679688 107.183594 123.589844 L 107.09375 123.53125 C 102.199219 119.371094 95.605469 118.226562 89.449219 120.457031 C 83.5 122.625 79.28125 127.460938 78.226562 133.4375 C 78.050781 134.378906 77.992188 135.316406 77.960938 135.988281 C 77.960938 136.222656 77.933594 136.429688 77.933594 136.605469 C 77.933594 136.664062 77.933594 136.722656 77.933594 136.75 C 77.960938 144.253906 81.566406 149.648438 85.550781 154.367188 C 84.789062 155.363281 84.320312 156.59375 84.320312 157.941406 C 84.320312 161.167969 86.929688 163.773438 90.152344 163.773438 C 93.378906 163.773438 95.988281 161.167969 95.988281 157.941406 C 95.988281 154.71875 93.378906 152.109375 90.152344 152.109375 C 89.597656 152.109375 89.039062 152.199219 88.511719 152.34375 C 84.351562 147.421875 81.566406 142.90625 81.507812 136.808594 C 81.507812 136.632812 81.535156 136.429688 81.535156 136.195312 C 81.566406 135.550781 81.625 134.789062 81.742188 134.054688 C 82.59375 129.367188 85.933594 125.527344 90.679688 123.796875 C 95.636719 122.007812 100.910156 122.886719 104.808594 126.171875 L 104.867188 126.230469 C 105.453125 126.726562 106.011719 127.195312 106.683594 127.546875 C 107.183594 127.8125 107.796875 127.8125 108.296875 127.546875 C 108.972656 127.195312 109.527344 126.726562 110.113281 126.230469 L 110.171875 126.171875 C 114.070312 122.886719 119.347656 122.007812 124.300781 123.796875 C 129.046875 125.496094 132.390625 129.335938 133.238281 134.054688 C 133.355469 134.789062 133.414062 135.578125 133.445312 136.195312 C 133.445312 136.429688 133.472656 136.632812 133.472656 136.808594 C 133.414062 142.90625 130.628906 147.449219 126.46875 152.375 C 122.953125 156.507812 118.878906 160.257812 114.890625 163.863281 C 112.195312 166.324219 109.382812 168.875 106.773438 171.542969 C 106.273438 172.039062 106.128906 172.832031 106.390625 173.476562 C 106.65625 174.152344 107.328125 174.5625 108.03125 174.5625 L 134 174.5625 L 143.058594 199.210938 C 143.351562 200 144.140625 200.46875 144.992188 200.351562 C 145.8125 200.234375 146.457031 199.53125 146.515625 198.710938 L 148.390625 168.433594 L 150.269531 176.113281 C 150.472656 176.90625 151.175781 177.460938 151.996094 177.460938 L 172.28125 177.460938 C 173.101562 177.460938 173.804688 176.90625 174.007812 176.144531 L 180.222656 152.726562 L 188.691406 202.523438 C 188.839844 203.371094 189.574219 204.015625 190.453125 204.015625 C 191.332031 204.015625 192.0625 203.371094 192.210938 202.523438 L 196.988281 173.328125 L 235.5 173.328125 C 235.472656 173.5625 235.441406 173.796875 235.382812 174.035156 C 236.554688 174.09375 237.289062 174.152344 238.460938 174.238281 C 239.105469 174.296875 239.75 174.414062 240.191406 175.058594 C 241.214844 176.554688 242.738281 177.375 244.5 177.695312 C 245.203125 177.8125 245.496094 178.136719 245.640625 178.78125 C 246.140625 180.921875 247.195312 182.796875 248.574219 184.496094 C 251.5625 188.191406 255.460938 190.652344 259.738281 192.527344 C 267.15625 195.75 274.863281 198.007812 283.039062 197.863281 C 288.582031 197.746094 292.625 193.90625 293.066406 188.394531 C 293.183594 186.8125 292.976562 185.171875 293.972656 183.765625 C 294.0625 183.648438 294.0625 183.472656 294.0625 183.296875 C 294.414062 180.949219 292.832031 178.929688 290.308594 178.488281 Z M 93.113281 157.941406 C 93.113281 159.582031 91.765625 160.933594 90.125 160.933594 C 88.484375 160.933594 87.136719 159.582031 87.136719 157.941406 C 87.136719 156.300781 88.484375 154.953125 90.125 154.953125 C 91.765625 154.953125 93.113281 156.300781 93.113281 157.941406 Z M 93.113281 157.941406 "/></g><g style="fill:#343233;fill-opacity:1;"><g transform="translate(74.204989, 239.017441)"><path style="stroke:none" d="M 20.5625 0 L 20.53125 -12.953125 L 14.125 -2.234375 L 12.5 -2.234375 L 6.078125 -12.78125 L 6.078125 0 L 2.625 0 L 2.625 -19.53125 L 5.609375 -19.53125 L 13.359375 -6.578125 L 20.984375 -19.53125 L 23.96875 -19.53125 L 24 0 Z M 20.5625 0 "/></g></g><g style="fill:#343233;fill-opacity:1;"><g transform="translate(100.851685, 239.017441)"><path style="stroke:none" d="M 17.28125 -3.046875 L 17.28125 0 L 2.625 0 L 2.625 -19.53125 L 16.890625 -19.53125 L 16.890625 -16.5 L 6.25 -16.5 L 6.25 -11.40625 L 15.6875 -11.40625 L 15.6875 -8.421875 L 6.25 -8.421875 L 6.25 -3.046875 Z M 17.28125 -3.046875 "/></g></g><g style="fill:#343233;fill-opacity:1;"><g transform="translate(119.546226, 239.017441)"><path style="stroke:none" d="M 15.40625 0 L 11.40625 -5.71875 C 11.238281 -5.695312 10.988281 -5.6875 10.65625 -5.6875 L 6.25 -5.6875 L 6.25 0 L 2.625 0 L 2.625 -19.53125 L 10.65625 -19.53125 C 12.351562 -19.53125 13.828125 -19.25 15.078125 -18.6875 C 16.335938 -18.132812 17.300781 -17.335938 17.96875 -16.296875 C 18.632812 -15.253906 18.96875 -14.015625 18.96875 -12.578125 C 18.96875 -11.109375 18.609375 -9.84375 17.890625 -8.78125 C 17.179688 -7.726562 16.15625 -6.941406 14.8125 -6.421875 L 19.3125 0 Z M 15.328125 -12.578125 C 15.328125 -13.828125 14.914062 -14.785156 14.09375 -15.453125 C 13.269531 -16.128906 12.070312 -16.46875 10.5 -16.46875 L 6.25 -16.46875 L 6.25 -8.671875 L 10.5 -8.671875 C 12.070312 -8.671875 13.269531 -9.007812 14.09375 -9.6875 C 14.914062 -10.375 15.328125 -11.335938 15.328125 -12.578125 Z M 15.328125 -12.578125 "/></g></g><g style="fill:#343233;fill-opacity:1;"><g transform="translate(139.942812, 239.017441)"><path style="stroke:none" d="M 11.75 0.28125 C 9.757812 0.28125 7.960938 -0.148438 6.359375 -1.015625 C 4.765625 -1.878906 3.507812 -3.078125 2.59375 -4.609375 C 1.6875 -6.148438 1.234375 -7.867188 1.234375 -9.765625 C 1.234375 -11.660156 1.6875 -13.375 2.59375 -14.90625 C 3.507812 -16.445312 4.765625 -17.648438 6.359375 -18.515625 C 7.960938 -19.378906 9.757812 -19.8125 11.75 -19.8125 C 13.738281 -19.8125 15.53125 -19.378906 17.125 -18.515625 C 18.726562 -17.648438 19.984375 -16.453125 20.890625 -14.921875 C 21.804688 -13.398438 22.265625 -11.679688 22.265625 -9.765625 C 22.265625 -7.847656 21.804688 -6.125 20.890625 -4.59375 C 19.984375 -3.070312 18.726562 -1.878906 17.125 -1.015625 C 15.53125 -0.148438 13.738281 0.28125 11.75 0.28125 Z M 11.75 -2.90625 C 13.050781 -2.90625 14.222656 -3.195312 15.265625 -3.78125 C 16.304688 -4.363281 17.125 -5.179688 17.71875 -6.234375 C 18.3125 -7.285156 18.609375 -8.460938 18.609375 -9.765625 C 18.609375 -11.066406 18.3125 -12.242188 17.71875 -13.296875 C 17.125 -14.347656 16.304688 -15.164062 15.265625 -15.75 C 14.222656 -16.332031 13.050781 -16.625 11.75 -16.625 C 10.445312 -16.625 9.273438 -16.332031 8.234375 -15.75 C 7.191406 -15.164062 6.375 -14.347656 5.78125 -13.296875 C 5.1875 -12.242188 4.890625 -11.066406 4.890625 -9.765625 C 4.890625 -8.460938 5.1875 -7.285156 5.78125 -6.234375 C 6.375 -5.179688 7.191406 -4.363281 8.234375 -3.78125 C 9.273438 -3.195312 10.445312 -2.90625 11.75 -2.90625 Z M 11.75 -2.90625 "/></g></g><g style="fill:#343233;fill-opacity:1;"><g transform="translate(163.436547, 239.017441)"><path style="stroke:none" d=""/></g></g><g style="fill:#343233;fill-opacity:1;"><g transform="translate(171.137585, 239.017441)"><path style="stroke:none" d="M 2.625 -19.53125 L 11.15625 -19.53125 C 13.238281 -19.53125 15.085938 -19.125 16.703125 -18.3125 C 18.328125 -17.507812 19.585938 -16.367188 20.484375 -14.890625 C 21.378906 -13.410156 21.828125 -11.703125 21.828125 -9.765625 C 21.828125 -7.828125 21.378906 -6.117188 20.484375 -4.640625 C 19.585938 -3.160156 18.328125 -2.015625 16.703125 -1.203125 C 15.085938 -0.398438 13.238281 0 11.15625 0 L 2.625 0 Z M 11 -3.0625 C 12.425781 -3.0625 13.679688 -3.335938 14.765625 -3.890625 C 15.859375 -4.441406 16.695312 -5.222656 17.28125 -6.234375 C 17.875 -7.253906 18.171875 -8.429688 18.171875 -9.765625 C 18.171875 -11.109375 17.875 -12.285156 17.28125 -13.296875 C 16.695312 -14.304688 15.859375 -15.085938 14.765625 -15.640625 C 13.679688 -16.191406 12.425781 -16.46875 11 -16.46875 L 6.25 -16.46875 L 6.25 -3.0625 Z M 11 -3.0625 "/></g></g><g style="fill:#343233;fill-opacity:1;"><g transform="translate(194.184885, 239.017441)"><path style="stroke:none" d="M 11.75 0.28125 C 9.757812 0.28125 7.960938 -0.148438 6.359375 -1.015625 C 4.765625 -1.878906 3.507812 -3.078125 2.59375 -4.609375 C 1.6875 -6.148438 1.234375 -7.867188 1.234375 -9.765625 C 1.234375 -11.660156 1.6875 -13.375 2.59375 -14.90625 C 3.507812 -16.445312 4.765625 -17.648438 6.359375 -18.515625 C 7.960938 -19.378906 9.757812 -19.8125 11.75 -19.8125 C 13.738281 -19.8125 15.53125 -19.378906 17.125 -18.515625 C 18.726562 -17.648438 19.984375 -16.453125 20.890625 -14.921875 C 21.804688 -13.398438 22.265625 -11.679688 22.265625 -9.765625 C 22.265625 -7.847656 21.804688 -6.125 20.890625 -4.59375 C 19.984375 -3.070312 18.726562 -1.878906 17.125 -1.015625 C 15.53125 -0.148438 13.738281 0.28125 11.75 0.28125 Z M 11.75 -2.90625 C 13.050781 -2.90625 14.222656 -3.195312 15.265625 -3.78125 C 16.304688 -4.363281 17.125 -5.179688 17.71875 -6.234375 C 18.3125 -7.285156 18.609375 -8.460938 18.609375 -9.765625 C 18.609375 -11.066406 18.3125 -12.242188 17.71875 -13.296875 C 17.125 -14.347656 16.304688 -15.164062 15.265625 -15.75 C 14.222656 -16.332031 13.050781 -16.625 11.75 -16.625 C 10.445312 -16.625 9.273438 -16.332031 8.234375 -15.75 C 7.191406 -15.164062 6.375 -14.347656 5.78125 -13.296875 C 5.1875 -12.242188 4.890625 -11.066406 4.890625 -9.765625 C 4.890625 -8.460938 5.1875 -7.285156 5.78125 -6.234375 C 6.375 -5.179688 7.191406 -4.363281 8.234375 -3.78125 C 9.273438 -3.195312 10.445312 -2.90625 11.75 -2.90625 Z M 11.75 -2.90625 "/></g></g><g style="fill:#343233;fill-opacity:1;"><g transform="translate(217.67862, 239.017441)"><path style="stroke:none" d="M 11.671875 0.28125 C 9.691406 0.28125 7.90625 -0.148438 6.3125 -1.015625 C 4.726562 -1.878906 3.484375 -3.070312 2.578125 -4.59375 C 1.679688 -6.125 1.234375 -7.847656 1.234375 -9.765625 C 1.234375 -11.679688 1.6875 -13.398438 2.59375 -14.921875 C 3.507812 -16.453125 4.757812 -17.648438 6.34375 -18.515625 C 7.9375 -19.378906 9.71875 -19.8125 11.6875 -19.8125 C 13.289062 -19.8125 14.753906 -19.53125 16.078125 -18.96875 C 17.398438 -18.414062 18.515625 -17.609375 19.421875 -16.546875 L 17.078125 -14.34375 C 15.660156 -15.863281 13.921875 -16.625 11.859375 -16.625 C 10.515625 -16.625 9.3125 -16.332031 8.25 -15.75 C 7.195312 -15.164062 6.375 -14.351562 5.78125 -13.3125 C 5.1875 -12.269531 4.890625 -11.085938 4.890625 -9.765625 C 4.890625 -8.441406 5.1875 -7.257812 5.78125 -6.21875 C 6.375 -5.175781 7.195312 -4.363281 8.25 -3.78125 C 9.3125 -3.195312 10.515625 -2.90625 11.859375 -2.90625 C 13.921875 -2.90625 15.660156 -3.675781 17.078125 -5.21875 L 19.421875 -2.984375 C 18.515625 -1.921875 17.394531 -1.109375 16.0625 -0.546875 C 14.726562 0.00390625 13.265625 0.28125 11.671875 0.28125 Z M 11.671875 0.28125 "/></g></g><g style="fill:#343233;fill-opacity:1;"><g transform="translate(237.963592, 239.017441)"><path style="stroke:none" d="M 6.578125 -16.46875 L 0.109375 -16.46875 L 0.109375 -19.53125 L 16.6875 -19.53125 L 16.6875 -16.46875 L 10.21875 -16.46875 L 10.21875 0 L 6.578125 0 Z M 6.578125 -16.46875 "/></g></g><g style="fill:#343233;fill-opacity:1;"><g transform="translate(254.760782, 239.017441)"><path style="stroke:none" d="M 11.75 0.28125 C 9.757812 0.28125 7.960938 -0.148438 6.359375 -1.015625 C 4.765625 -1.878906 3.507812 -3.078125 2.59375 -4.609375 C 1.6875 -6.148438 1.234375 -7.867188 1.234375 -9.765625 C 1.234375 -11.660156 1.6875 -13.375 2.59375 -14.90625 C 3.507812 -16.445312 4.765625 -17.648438 6.359375 -18.515625 C 7.960938 -19.378906 9.757812 -19.8125 11.75 -19.8125 C 13.738281 -19.8125 15.53125 -19.378906 17.125 -18.515625 C 18.726562 -17.648438 19.984375 -16.453125 20.890625 -14.921875 C 21.804688 -13.398438 22.265625 -11.679688 22.265625 -9.765625 C 22.265625 -7.847656 21.804688 -6.125 20.890625 -4.59375 C 19.984375 -3.070312 18.726562 -1.878906 17.125 -1.015625 C 15.53125 -0.148438 13.738281 0.28125 11.75 0.28125 Z M 11.75 -2.90625 C 13.050781 -2.90625 14.222656 -3.195312 15.265625 -3.78125 C 16.304688 -4.363281 17.125 -5.179688 17.71875 -6.234375 C 18.3125 -7.285156 18.609375 -8.460938 18.609375 -9.765625 C 18.609375 -11.066406 18.3125 -12.242188 17.71875 -13.296875 C 17.125 -14.347656 16.304688 -15.164062 15.265625 -15.75 C 14.222656 -16.332031 13.050781 -16.625 11.75 -16.625 C 10.445312 -16.625 9.273438 -16.332031 8.234375 -15.75 C 7.191406 -15.164062 6.375 -14.347656 5.78125 -13.296875 C 5.1875 -12.242188 4.890625 -11.066406 4.890625 -9.765625 C 4.890625 -8.460938 5.1875 -7.285156 5.78125 -6.234375 C 6.375 -5.179688 7.191406 -4.363281 8.234375 -3.78125 C 9.273438 -3.195312 10.445312 -2.90625 11.75 -2.90625 Z M 11.75 -2.90625 "/></g></g><g style="fill:#343233;fill-opacity:1;"><g transform="translate(278.254505, 239.017441)"><path style="stroke:none" d="M 15.40625 0 L 11.40625 -5.71875 C 11.238281 -5.695312 10.988281 -5.6875 10.65625 -5.6875 L 6.25 -5.6875 L 6.25 0 L 2.625 0 L 2.625 -19.53125 L 10.65625 -19.53125 C 12.351562 -19.53125 13.828125 -19.25 15.078125 -18.6875 C 16.335938 -18.132812 17.300781 -17.335938 17.96875 -16.296875 C 18.632812 -15.253906 18.96875 -14.015625 18.96875 -12.578125 C 18.96875 -11.109375 18.609375 -9.84375 17.890625 -8.78125 C 17.179688 -7.726562 16.15625 -6.941406 14.8125 -6.421875 L 19.3125 0 Z M 15.328125 -12.578125 C 15.328125 -13.828125 14.914062 -14.785156 14.09375 -15.453125 C 13.269531 -16.128906 12.070312 -16.46875 10.5 -16.46875 L 6.25 -16.46875 L 6.25 -8.671875 L 10.5 -8.671875 C 12.070312 -8.671875 13.269531 -9.007812 14.09375 -9.6875 C 14.914062 -10.375 15.328125 -11.335938 15.328125 -12.578125 Z M 15.328125 -12.578125 "/></g></g><g style="fill:#343233;fill-opacity:1;"><g transform="translate(111.828707, 254.014359)"><path style="stroke:none" d="M 4.046875 -0.90625 C 4.378906 -0.90625 4.660156 -0.941406 4.890625 -1.015625 C 5.128906 -1.097656 5.320312 -1.207031 5.46875 -1.34375 C 5.625 -1.476562 5.738281 -1.640625 5.8125 -1.828125 C 5.882812 -2.015625 5.921875 -2.21875 5.921875 -2.4375 C 5.921875 -2.875 5.765625 -3.21875 5.453125 -3.46875 C 5.140625 -3.726562 4.671875 -3.859375 4.046875 -3.859375 L 2.21875 -3.859375 L 2.21875 -0.90625 Z M 2.21875 -7.5625 L 2.21875 -4.671875 L 3.734375 -4.671875 C 4.054688 -4.671875 4.335938 -4.707031 4.578125 -4.78125 C 4.816406 -4.851562 5.007812 -4.953125 5.15625 -5.078125 C 5.3125 -5.203125 5.425781 -5.351562 5.5 -5.53125 C 5.582031 -5.707031 5.625 -5.90625 5.625 -6.125 C 5.625 -6.625 5.472656 -6.988281 5.171875 -7.21875 C 4.867188 -7.445312 4.40625 -7.5625 3.78125 -7.5625 Z M 3.78125 -8.46875 C 4.300781 -8.46875 4.75 -8.414062 5.125 -8.3125 C 5.5 -8.207031 5.804688 -8.0625 6.046875 -7.875 C 6.296875 -7.6875 6.472656 -7.453125 6.578125 -7.171875 C 6.691406 -6.898438 6.75 -6.59375 6.75 -6.25 C 6.75 -6.039062 6.71875 -5.84375 6.65625 -5.65625 C 6.59375 -5.46875 6.492188 -5.289062 6.359375 -5.125 C 6.234375 -4.957031 6.070312 -4.804688 5.875 -4.671875 C 5.675781 -4.546875 5.441406 -4.441406 5.171875 -4.359375 C 5.796875 -4.234375 6.265625 -4.007812 6.578125 -3.6875 C 6.890625 -3.363281 7.046875 -2.9375 7.046875 -2.40625 C 7.046875 -2.050781 6.976562 -1.722656 6.84375 -1.421875 C 6.71875 -1.128906 6.523438 -0.875 6.265625 -0.65625 C 6.015625 -0.445312 5.703125 -0.285156 5.328125 -0.171875 C 4.960938 -0.0546875 4.539062 0 4.0625 0 L 1.078125 0 L 1.078125 -8.46875 Z M 3.78125 -8.46875 "/></g></g><g style="fill:#343233;fill-opacity:1;"><g transform="translate(119.47002, 254.014359)"><path style="stroke:none" d="M 8.90625 -4.234375 C 8.90625 -3.597656 8.800781 -3.015625 8.59375 -2.484375 C 8.394531 -1.953125 8.113281 -1.492188 7.75 -1.109375 C 7.382812 -0.734375 6.941406 -0.4375 6.421875 -0.21875 C 5.910156 -0.0078125 5.34375 0.09375 4.71875 0.09375 C 4.101562 0.09375 3.535156 -0.0078125 3.015625 -0.21875 C 2.503906 -0.4375 2.066406 -0.734375 1.703125 -1.109375 C 1.335938 -1.492188 1.054688 -1.953125 0.859375 -2.484375 C 0.660156 -3.015625 0.5625 -3.597656 0.5625 -4.234375 C 0.5625 -4.867188 0.660156 -5.445312 0.859375 -5.96875 C 1.054688 -6.5 1.335938 -6.957031 1.703125 -7.34375 C 2.066406 -7.726562 2.503906 -8.023438 3.015625 -8.234375 C 3.535156 -8.453125 4.101562 -8.5625 4.71875 -8.5625 C 5.34375 -8.5625 5.910156 -8.453125 6.421875 -8.234375 C 6.941406 -8.023438 7.382812 -7.726562 7.75 -7.34375 C 8.113281 -6.957031 8.394531 -6.5 8.59375 -5.96875 C 8.800781 -5.445312 8.90625 -4.867188 8.90625 -4.234375 Z M 7.71875 -4.234375 C 7.71875 -4.753906 7.644531 -5.21875 7.5 -5.625 C 7.363281 -6.039062 7.164062 -6.390625 6.90625 -6.671875 C 6.644531 -6.960938 6.328125 -7.179688 5.953125 -7.328125 C 5.585938 -7.484375 5.175781 -7.5625 4.71875 -7.5625 C 4.269531 -7.5625 3.859375 -7.484375 3.484375 -7.328125 C 3.117188 -7.179688 2.804688 -6.960938 2.546875 -6.671875 C 2.285156 -6.390625 2.082031 -6.039062 1.9375 -5.625 C 1.789062 -5.21875 1.71875 -4.753906 1.71875 -4.234375 C 1.71875 -3.710938 1.789062 -3.242188 1.9375 -2.828125 C 2.082031 -2.421875 2.285156 -2.070312 2.546875 -1.78125 C 2.804688 -1.5 3.117188 -1.28125 3.484375 -1.125 C 3.859375 -0.976562 4.269531 -0.90625 4.71875 -0.90625 C 5.175781 -0.90625 5.585938 -0.976562 5.953125 -1.125 C 6.328125 -1.28125 6.644531 -1.5 6.90625 -1.78125 C 7.164062 -2.070312 7.363281 -2.421875 7.5 -2.828125 C 7.644531 -3.242188 7.71875 -3.710938 7.71875 -4.234375 Z M 7.71875 -4.234375 "/></g></g><g style="fill:#343233;fill-opacity:1;"><g transform="translate(128.931532, 254.014359)"><path style="stroke:none" d="M 8.90625 -4.234375 C 8.90625 -3.597656 8.800781 -3.015625 8.59375 -2.484375 C 8.394531 -1.953125 8.113281 -1.492188 7.75 -1.109375 C 7.382812 -0.734375 6.941406 -0.4375 6.421875 -0.21875 C 5.910156 -0.0078125 5.34375 0.09375 4.71875 0.09375 C 4.101562 0.09375 3.535156 -0.0078125 3.015625 -0.21875 C 2.503906 -0.4375 2.066406 -0.734375 1.703125 -1.109375 C 1.335938 -1.492188 1.054688 -1.953125 0.859375 -2.484375 C 0.660156 -3.015625 0.5625 -3.597656 0.5625 -4.234375 C 0.5625 -4.867188 0.660156 -5.445312 0.859375 -5.96875 C 1.054688 -6.5 1.335938 -6.957031 1.703125 -7.34375 C 2.066406 -7.726562 2.503906 -8.023438 3.015625 -8.234375 C 3.535156 -8.453125 4.101562 -8.5625 4.71875 -8.5625 C 5.34375 -8.5625 5.910156 -8.453125 6.421875 -8.234375 C 6.941406 -8.023438 7.382812 -7.726562 7.75 -7.34375 C 8.113281 -6.957031 8.394531 -6.5 8.59375 -5.96875 C 8.800781 -5.445312 8.90625 -4.867188 8.90625 -4.234375 Z M 7.71875 -4.234375 C 7.71875 -4.753906 7.644531 -5.21875 7.5 -5.625 C 7.363281 -6.039062 7.164062 -6.390625 6.90625 -6.671875 C 6.644531 -6.960938 6.328125 -7.179688 5.953125 -7.328125 C 5.585938 -7.484375 5.175781 -7.5625 4.71875 -7.5625 C 4.269531 -7.5625 3.859375 -7.484375 3.484375 -7.328125 C 3.117188 -7.179688 2.804688 -6.960938 2.546875 -6.671875 C 2.285156 -6.390625 2.082031 -6.039062 1.9375 -5.625 C 1.789062 -5.21875 1.71875 -4.753906 1.71875 -4.234375 C 1.71875 -3.710938 1.789062 -3.242188 1.9375 -2.828125 C 2.082031 -2.421875 2.285156 -2.070312 2.546875 -1.78125 C 2.804688 -1.5 3.117188 -1.28125 3.484375 -1.125 C 3.859375 -0.976562 4.269531 -0.90625 4.71875 -0.90625 C 5.175781 -0.90625 5.585938 -0.976562 5.953125 -1.125 C 6.328125 -1.28125 6.644531 -1.5 6.90625 -1.78125 C 7.164062 -2.070312 7.363281 -2.421875 7.5 -2.828125 C 7.644531 -3.242188 7.71875 -3.710938 7.71875 -4.234375 Z M 7.71875 -4.234375 "/></g></g><g style="fill:#343233;fill-opacity:1;"><g transform="translate(138.393043, 254.014359)"><path style="stroke:none" d="M 2.21875 -4.75 L 2.65625 -4.75 C 2.800781 -4.75 2.914062 -4.765625 3 -4.796875 C 3.09375 -4.835938 3.179688 -4.90625 3.265625 -5 L 6.078125 -8.1875 C 6.160156 -8.289062 6.242188 -8.363281 6.328125 -8.40625 C 6.410156 -8.445312 6.515625 -8.46875 6.640625 -8.46875 L 7.609375 -8.46875 L 4.390625 -4.8125 C 4.304688 -4.71875 4.226562 -4.640625 4.15625 -4.578125 C 4.082031 -4.523438 4.003906 -4.476562 3.921875 -4.4375 C 4.035156 -4.394531 4.132812 -4.335938 4.21875 -4.265625 C 4.300781 -4.203125 4.382812 -4.117188 4.46875 -4.015625 L 7.84375 0 L 6.84375 0 C 6.769531 0 6.707031 -0.00390625 6.65625 -0.015625 C 6.601562 -0.0234375 6.554688 -0.0390625 6.515625 -0.0625 C 6.472656 -0.0820312 6.4375 -0.109375 6.40625 -0.140625 C 6.375 -0.171875 6.347656 -0.203125 6.328125 -0.234375 L 3.40625 -3.609375 C 3.332031 -3.703125 3.25 -3.769531 3.15625 -3.8125 C 3.0625 -3.851562 2.921875 -3.875 2.734375 -3.875 L 2.21875 -3.875 L 2.21875 0 L 1.078125 0 L 1.078125 -8.46875 L 2.21875 -8.46875 Z M 2.21875 -4.75 "/></g></g><g style="fill:#343233;fill-opacity:1;"><g transform="translate(146.223468, 254.014359)"><path style="stroke:none" d=""/></g></g><g style="fill:#343233;fill-opacity:1;"><g transform="translate(149.249261, 254.014359)"><path style="stroke:none" d="M 4.265625 -3.375 L 4.265625 0 L 3.109375 0 L 3.109375 -3.375 L 0.015625 -8.46875 L 1.015625 -8.46875 C 1.117188 -8.46875 1.195312 -8.441406 1.25 -8.390625 C 1.3125 -8.335938 1.363281 -8.273438 1.40625 -8.203125 L 3.34375 -4.90625 C 3.414062 -4.769531 3.476562 -4.640625 3.53125 -4.515625 C 3.59375 -4.398438 3.648438 -4.28125 3.703125 -4.15625 C 3.742188 -4.28125 3.789062 -4.398438 3.84375 -4.515625 C 3.894531 -4.640625 3.957031 -4.769531 4.03125 -4.90625 L 5.953125 -8.203125 C 5.992188 -8.265625 6.046875 -8.320312 6.109375 -8.375 C 6.171875 -8.4375 6.25 -8.46875 6.34375 -8.46875 L 7.359375 -8.46875 Z M 4.265625 -3.375 "/></g></g><g style="fill:#343233;fill-opacity:1;"><g transform="translate(156.624633, 254.014359)"><path style="stroke:none" d="M 8.90625 -4.234375 C 8.90625 -3.597656 8.800781 -3.015625 8.59375 -2.484375 C 8.394531 -1.953125 8.113281 -1.492188 7.75 -1.109375 C 7.382812 -0.734375 6.941406 -0.4375 6.421875 -0.21875 C 5.910156 -0.0078125 5.34375 0.09375 4.71875 0.09375 C 4.101562 0.09375 3.535156 -0.0078125 3.015625 -0.21875 C 2.503906 -0.4375 2.066406 -0.734375 1.703125 -1.109375 C 1.335938 -1.492188 1.054688 -1.953125 0.859375 -2.484375 C 0.660156 -3.015625 0.5625 -3.597656 0.5625 -4.234375 C 0.5625 -4.867188 0.660156 -5.445312 0.859375 -5.96875 C 1.054688 -6.5 1.335938 -6.957031 1.703125 -7.34375 C 2.066406 -7.726562 2.503906 -8.023438 3.015625 -8.234375 C 3.535156 -8.453125 4.101562 -8.5625 4.71875 -8.5625 C 5.34375 -8.5625 5.910156 -8.453125 6.421875 -8.234375 C 6.941406 -8.023438 7.382812 -7.726562 7.75 -7.34375 C 8.113281 -6.957031 8.394531 -6.5 8.59375 -5.96875 C 8.800781 -5.445312 8.90625 -4.867188 8.90625 -4.234375 Z M 7.71875 -4.234375 C 7.71875 -4.753906 7.644531 -5.21875 7.5 -5.625 C 7.363281 -6.039062 7.164062 -6.390625 6.90625 -6.671875 C 6.644531 -6.960938 6.328125 -7.179688 5.953125 -7.328125 C 5.585938 -7.484375 5.175781 -7.5625 4.71875 -7.5625 C 4.269531 -7.5625 3.859375 -7.484375 3.484375 -7.328125 C 3.117188 -7.179688 2.804688 -6.960938 2.546875 -6.671875 C 2.285156 -6.390625 2.082031 -6.039062 1.9375 -5.625 C 1.789062 -5.21875 1.71875 -4.753906 1.71875 -4.234375 C 1.71875 -3.710938 1.789062 -3.242188 1.9375 -2.828125 C 2.082031 -2.421875 2.285156 -2.070312 2.546875 -1.78125 C 2.804688 -1.5 3.117188 -1.28125 3.484375 -1.125 C 3.859375 -0.976562 4.269531 -0.90625 4.71875 -0.90625 C 5.175781 -0.90625 5.585938 -0.976562 5.953125 -1.125 C 6.328125 -1.28125 6.644531 -1.5 6.90625 -1.78125 C 7.164062 -2.070312 7.363281 -2.421875 7.5 -2.828125 C 7.644531 -3.242188 7.71875 -3.710938 7.71875 -4.234375 Z M 7.71875 -4.234375 "/></g></g><g style="fill:#343233;fill-opacity:1;"><g transform="translate(166.086144, 254.014359)"><path style="stroke:none" d="M 4.34375 -0.90625 C 4.695312 -0.90625 5.007812 -0.960938 5.28125 -1.078125 C 5.5625 -1.203125 5.796875 -1.367188 5.984375 -1.578125 C 6.171875 -1.796875 6.316406 -2.050781 6.421875 -2.34375 C 6.523438 -2.632812 6.578125 -2.957031 6.578125 -3.3125 L 6.578125 -8.46875 L 7.71875 -8.46875 L 7.71875 -3.3125 C 7.71875 -2.832031 7.640625 -2.378906 7.484375 -1.953125 C 7.328125 -1.535156 7.101562 -1.175781 6.8125 -0.875 C 6.519531 -0.570312 6.164062 -0.332031 5.75 -0.15625 C 5.332031 0.0078125 4.863281 0.09375 4.34375 0.09375 C 3.820312 0.09375 3.351562 0.0078125 2.9375 -0.15625 C 2.519531 -0.332031 2.164062 -0.570312 1.875 -0.875 C 1.582031 -1.175781 1.359375 -1.535156 1.203125 -1.953125 C 1.046875 -2.378906 0.96875 -2.832031 0.96875 -3.3125 L 0.96875 -8.46875 L 2.109375 -8.46875 L 2.109375 -3.328125 C 2.109375 -2.972656 2.160156 -2.644531 2.265625 -2.34375 C 2.367188 -2.050781 2.515625 -1.796875 2.703125 -1.578125 C 2.890625 -1.367188 3.125 -1.203125 3.40625 -1.078125 C 3.6875 -0.960938 4 -0.90625 4.34375 -0.90625 Z M 4.34375 -0.90625 "/></g></g><g style="fill:#343233;fill-opacity:1;"><g transform="translate(174.779394, 254.014359)"><path style="stroke:none" d="M 3.421875 -4.359375 C 3.753906 -4.359375 4.046875 -4.398438 4.296875 -4.484375 C 4.554688 -4.566406 4.769531 -4.679688 4.9375 -4.828125 C 5.113281 -4.972656 5.242188 -5.148438 5.328125 -5.359375 C 5.410156 -5.566406 5.453125 -5.789062 5.453125 -6.03125 C 5.453125 -6.539062 5.285156 -6.921875 4.953125 -7.171875 C 4.628906 -7.429688 4.132812 -7.5625 3.46875 -7.5625 L 2.21875 -7.5625 L 2.21875 -4.359375 Z M 7.328125 0 L 6.3125 0 C 6.101562 0 5.953125 -0.078125 5.859375 -0.234375 L 3.65625 -3.265625 C 3.59375 -3.359375 3.519531 -3.425781 3.4375 -3.46875 C 3.363281 -3.507812 3.25 -3.53125 3.09375 -3.53125 L 2.21875 -3.53125 L 2.21875 0 L 1.078125 0 L 1.078125 -8.46875 L 3.46875 -8.46875 C 4.007812 -8.46875 4.472656 -8.410156 4.859375 -8.296875 C 5.253906 -8.191406 5.578125 -8.035156 5.828125 -7.828125 C 6.078125 -7.628906 6.265625 -7.382812 6.390625 -7.09375 C 6.515625 -6.800781 6.578125 -6.476562 6.578125 -6.125 C 6.578125 -5.820312 6.53125 -5.539062 6.4375 -5.28125 C 6.34375 -5.019531 6.203125 -4.785156 6.015625 -4.578125 C 5.835938 -4.367188 5.617188 -4.191406 5.359375 -4.046875 C 5.109375 -3.898438 4.816406 -3.789062 4.484375 -3.71875 C 4.628906 -3.632812 4.753906 -3.515625 4.859375 -3.359375 Z M 7.328125 0 "/></g></g><g style="fill:#343233;fill-opacity:1;"><g transform="translate(182.184313, 254.014359)"><path style="stroke:none" d=""/></g></g><g style="fill:#343233;fill-opacity:1;"><g transform="translate(185.210107, 254.014359)"><path style="stroke:none" d="M 5.578125 -3.140625 L 4.25 -6.578125 C 4.207031 -6.679688 4.164062 -6.800781 4.125 -6.9375 C 4.082031 -7.070312 4.039062 -7.21875 4 -7.375 C 3.914062 -7.0625 3.832031 -6.796875 3.75 -6.578125 L 2.421875 -3.140625 Z M 7.96875 0 L 7.078125 0 C 6.972656 0 6.890625 -0.0234375 6.828125 -0.078125 C 6.765625 -0.128906 6.71875 -0.191406 6.6875 -0.265625 L 5.890625 -2.3125 L 2.09375 -2.3125 L 1.3125 -0.265625 C 1.28125 -0.203125 1.226562 -0.140625 1.15625 -0.078125 C 1.09375 -0.0234375 1.015625 0 0.921875 0 L 0.03125 0 L 3.421875 -8.46875 L 4.578125 -8.46875 Z M 7.96875 0 "/></g></g><g style="fill:#343233;fill-opacity:1;"><g transform="translate(193.21191, 254.014359)"><path style="stroke:none" d="M 3.578125 -4.078125 C 3.898438 -4.078125 4.1875 -4.117188 4.4375 -4.203125 C 4.6875 -4.285156 4.894531 -4.40625 5.0625 -4.5625 C 5.238281 -4.71875 5.367188 -4.90625 5.453125 -5.125 C 5.546875 -5.34375 5.59375 -5.582031 5.59375 -5.84375 C 5.59375 -6.382812 5.425781 -6.804688 5.09375 -7.109375 C 4.757812 -7.410156 4.253906 -7.5625 3.578125 -7.5625 L 2.21875 -7.5625 L 2.21875 -4.078125 Z M 3.578125 -8.46875 C 4.109375 -8.46875 4.570312 -8.40625 4.96875 -8.28125 C 5.363281 -8.15625 5.691406 -7.976562 5.953125 -7.75 C 6.210938 -7.519531 6.40625 -7.242188 6.53125 -6.921875 C 6.664062 -6.597656 6.734375 -6.238281 6.734375 -5.84375 C 6.734375 -5.445312 6.660156 -5.082031 6.515625 -4.75 C 6.378906 -4.425781 6.175781 -4.144531 5.90625 -3.90625 C 5.644531 -3.675781 5.316406 -3.492188 4.921875 -3.359375 C 4.535156 -3.234375 4.085938 -3.171875 3.578125 -3.171875 L 2.21875 -3.171875 L 2.21875 0 L 1.078125 0 L 1.078125 -8.46875 Z M 3.578125 -8.46875 "/></g></g><g style="fill:#343233;fill-opacity:1;"><g transform="translate(200.309527, 254.014359)"><path style="stroke:none" d="M 3.578125 -4.078125 C 3.898438 -4.078125 4.1875 -4.117188 4.4375 -4.203125 C 4.6875 -4.285156 4.894531 -4.40625 5.0625 -4.5625 C 5.238281 -4.71875 5.367188 -4.90625 5.453125 -5.125 C 5.546875 -5.34375 5.59375 -5.582031 5.59375 -5.84375 C 5.59375 -6.382812 5.425781 -6.804688 5.09375 -7.109375 C 4.757812 -7.410156 4.253906 -7.5625 3.578125 -7.5625 L 2.21875 -7.5625 L 2.21875 -4.078125 Z M 3.578125 -8.46875 C 4.109375 -8.46875 4.570312 -8.40625 4.96875 -8.28125 C 5.363281 -8.15625 5.691406 -7.976562 5.953125 -7.75 C 6.210938 -7.519531 6.40625 -7.242188 6.53125 -6.921875 C 6.664062 -6.597656 6.734375 -6.238281 6.734375 -5.84375 C 6.734375 -5.445312 6.660156 -5.082031 6.515625 -4.75 C 6.378906 -4.425781 6.175781 -4.144531 5.90625 -3.90625 C 5.644531 -3.675781 5.316406 -3.492188 4.921875 -3.359375 C 4.535156 -3.234375 4.085938 -3.171875 3.578125 -3.171875 L 2.21875 -3.171875 L 2.21875 0 L 1.078125 0 L 1.078125 -8.46875 Z M 3.578125 -8.46875 "/></g></g><g style="fill:#343233;fill-opacity:1;"><g transform="translate(207.407145, 254.014359)"><path style="stroke:none" d="M 8.90625 -4.234375 C 8.90625 -3.597656 8.800781 -3.015625 8.59375 -2.484375 C 8.394531 -1.953125 8.113281 -1.492188 7.75 -1.109375 C 7.382812 -0.734375 6.941406 -0.4375 6.421875 -0.21875 C 5.910156 -0.0078125 5.34375 0.09375 4.71875 0.09375 C 4.101562 0.09375 3.535156 -0.0078125 3.015625 -0.21875 C 2.503906 -0.4375 2.066406 -0.734375 1.703125 -1.109375 C 1.335938 -1.492188 1.054688 -1.953125 0.859375 -2.484375 C 0.660156 -3.015625 0.5625 -3.597656 0.5625 -4.234375 C 0.5625 -4.867188 0.660156 -5.445312 0.859375 -5.96875 C 1.054688 -6.5 1.335938 -6.957031 1.703125 -7.34375 C 2.066406 -7.726562 2.503906 -8.023438 3.015625 -8.234375 C 3.535156 -8.453125 4.101562 -8.5625 4.71875 -8.5625 C 5.34375 -8.5625 5.910156 -8.453125 6.421875 -8.234375 C 6.941406 -8.023438 7.382812 -7.726562 7.75 -7.34375 C 8.113281 -6.957031 8.394531 -6.5 8.59375 -5.96875 C 8.800781 -5.445312 8.90625 -4.867188 8.90625 -4.234375 Z M 7.71875 -4.234375 C 7.71875 -4.753906 7.644531 -5.21875 7.5 -5.625 C 7.363281 -6.039062 7.164062 -6.390625 6.90625 -6.671875 C 6.644531 -6.960938 6.328125 -7.179688 5.953125 -7.328125 C 5.585938 -7.484375 5.175781 -7.5625 4.71875 -7.5625 C 4.269531 -7.5625 3.859375 -7.484375 3.484375 -7.328125 C 3.117188 -7.179688 2.804688 -6.960938 2.546875 -6.671875 C 2.285156 -6.390625 2.082031 -6.039062 1.9375 -5.625 C 1.789062 -5.21875 1.71875 -4.753906 1.71875 -4.234375 C 1.71875 -3.710938 1.789062 -3.242188 1.9375 -2.828125 C 2.082031 -2.421875 2.285156 -2.070312 2.546875 -1.78125 C 2.804688 -1.5 3.117188 -1.28125 3.484375 -1.125 C 3.859375 -0.976562 4.269531 -0.90625 4.71875 -0.90625 C 5.175781 -0.90625 5.585938 -0.976562 5.953125 -1.125 C 6.328125 -1.28125 6.644531 -1.5 6.90625 -1.78125 C 7.164062 -2.070312 7.363281 -2.421875 7.5 -2.828125 C 7.644531 -3.242188 7.71875 -3.710938 7.71875 -4.234375 Z M 7.71875 -4.234375 "/></g></g><g style="fill:#343233;fill-opacity:1;"><g transform="translate(216.868656, 254.014359)"><path style="stroke:none" d="M 2.234375 0 L 1.078125 0 L 1.078125 -8.46875 L 2.234375 -8.46875 Z M 2.234375 0 "/></g></g><g style="fill:#343233;fill-opacity:1;"><g transform="translate(220.178125, 254.014359)"><path style="stroke:none" d="M 7.9375 -8.46875 L 7.9375 0 L 7.359375 0 C 7.273438 0 7.203125 -0.015625 7.140625 -0.046875 C 7.078125 -0.078125 7.015625 -0.128906 6.953125 -0.203125 L 2.0625 -6.578125 C 2.070312 -6.484375 2.078125 -6.390625 2.078125 -6.296875 C 2.078125 -6.203125 2.078125 -6.113281 2.078125 -6.03125 L 2.078125 0 L 1.078125 0 L 1.078125 -8.46875 L 1.671875 -8.46875 C 1.722656 -8.46875 1.765625 -8.460938 1.796875 -8.453125 C 1.835938 -8.453125 1.867188 -8.441406 1.890625 -8.421875 C 1.921875 -8.410156 1.945312 -8.390625 1.96875 -8.359375 C 2 -8.335938 2.03125 -8.304688 2.0625 -8.265625 L 6.96875 -1.890625 C 6.957031 -1.992188 6.945312 -2.09375 6.9375 -2.1875 C 6.9375 -2.289062 6.9375 -2.382812 6.9375 -2.46875 L 6.9375 -8.46875 Z M 7.9375 -8.46875 "/></g></g><g style="fill:#343233;fill-opacity:1;"><g transform="translate(229.202318, 254.014359)"><path style="stroke:none" d="M 6.796875 -7.5 L 4.0625 -7.5 L 4.0625 0 L 2.921875 0 L 2.921875 -7.5 L 0.171875 -7.5 L 0.171875 -8.46875 L 6.796875 -8.46875 Z M 6.796875 -7.5 "/></g></g><g style="fill:#343233;fill-opacity:1;"><g transform="translate(236.181731, 254.014359)"><path style="stroke:none" d="M 9.890625 -8.46875 L 9.890625 0 L 8.890625 0 L 8.890625 -6.21875 C 8.890625 -6.300781 8.890625 -6.390625 8.890625 -6.484375 C 8.898438 -6.578125 8.90625 -6.675781 8.90625 -6.78125 L 6 -1.484375 C 5.914062 -1.304688 5.78125 -1.21875 5.59375 -1.21875 L 5.421875 -1.21875 C 5.242188 -1.21875 5.109375 -1.304688 5.015625 -1.484375 L 2.046875 -6.796875 C 2.066406 -6.585938 2.078125 -6.394531 2.078125 -6.21875 L 2.078125 0 L 1.078125 0 L 1.078125 -8.46875 L 1.921875 -8.46875 C 2.023438 -8.46875 2.101562 -8.457031 2.15625 -8.4375 C 2.21875 -8.414062 2.273438 -8.359375 2.328125 -8.265625 L 5.25 -3.0625 C 5.289062 -2.96875 5.332031 -2.867188 5.375 -2.765625 C 5.425781 -2.660156 5.472656 -2.554688 5.515625 -2.453125 C 5.546875 -2.554688 5.582031 -2.660156 5.625 -2.765625 C 5.675781 -2.867188 5.726562 -2.96875 5.78125 -3.0625 L 8.640625 -8.265625 C 8.691406 -8.359375 8.742188 -8.414062 8.796875 -8.4375 C 8.859375 -8.457031 8.941406 -8.46875 9.046875 -8.46875 Z M 9.890625 -8.46875 "/></g></g><g style="fill:#343233;fill-opacity:1;"><g transform="translate(247.156139, 254.014359)"><path style="stroke:none" d="M 6.296875 -0.9375 L 6.296875 0 L 1.078125 0 L 1.078125 -8.46875 L 6.296875 -8.46875 L 6.296875 -7.53125 L 2.234375 -7.53125 L 2.234375 -4.71875 L 5.515625 -4.71875 L 5.515625 -3.828125 L 2.234375 -3.828125 L 2.234375 -0.9375 Z M 6.296875 -0.9375 "/></g></g><g style="fill:#343233;fill-opacity:1;"><g transform="translate(253.981909, 254.014359)"><path style="stroke:none" d="M 7.9375 -8.46875 L 7.9375 0 L 7.359375 0 C 7.273438 0 7.203125 -0.015625 7.140625 -0.046875 C 7.078125 -0.078125 7.015625 -0.128906 6.953125 -0.203125 L 2.0625 -6.578125 C 2.070312 -6.484375 2.078125 -6.390625 2.078125 -6.296875 C 2.078125 -6.203125 2.078125 -6.113281 2.078125 -6.03125 L 2.078125 0 L 1.078125 0 L 1.078125 -8.46875 L 1.671875 -8.46875 C 1.722656 -8.46875 1.765625 -8.460938 1.796875 -8.453125 C 1.835938 -8.453125 1.867188 -8.441406 1.890625 -8.421875 C 1.921875 -8.410156 1.945312 -8.390625 1.96875 -8.359375 C 2 -8.335938 2.03125 -8.304688 2.0625 -8.265625 L 6.96875 -1.890625 C 6.957031 -1.992188 6.945312 -2.09375 6.9375 -2.1875 C 6.9375 -2.289062 6.9375 -2.382812 6.9375 -2.46875 L 6.9375 -8.46875 Z M 7.9375 -8.46875 "/></g></g><g style="fill:#343233;fill-opacity:1;"><g transform="translate(263.006101, 254.014359)"><path style="stroke:none" d="M 6.796875 -7.5 L 4.0625 -7.5 L 4.0625 0 L 2.921875 0 L 2.921875 -7.5 L 0.171875 -7.5 L 0.171875 -8.46875 L 6.796875 -8.46875 Z M 6.796875 -7.5 "/></g></g></g></svg>